<?xml version="1.0" encoding="UTF-8"?>
<svg version="1.1" xmlns="http://www.w3.org/2000/svg" width="512" height="512">
<path d="M0 0 C51.81 0 103.62 0 157 0 C157 12.87 157 25.74 157 39 C169.87 39 182.74 39 196 39 C196 52.2 196 65.4 196 79 C209.2 79 222.4 79 236 79 C236 105.07 236 131.14 236 158 C248.87 158 261.74 158 275 158 C275 183.74 275 209.48 275 236 C288.2 236 301.4 236 315 236 C315 274.94 315 313.88 315 354 C301.8 354 288.6 354 275 354 C275 380.07 275 406.14 275 433 C262.13 433 249.26 433 236 433 C236 446.2 236 459.4 236 473 C222.8 473 209.6 473 196 473 C196 485.87 196 498.74 196 512 C118.12 512 40.24 512 -40 512 C-40 499.13 -40 486.26 -40 473 C-52.87 473 -65.74 473 -79 473 C-79 459.8 -79 446.6 -79 433 C-92.2 433 -105.4 433 -119 433 C-119 406.93 -119 380.86 -119 354 C-131.87 354 -144.74 354 -158 354 C-158 302.19 -158 250.38 -158 197 C-145.13 197 -132.26 197 -119 197 C-119 170.93 -119 144.86 -119 118 C-105.8 118 -92.6 118 -79 118 C-79 105.13 -79 92.26 -79 79 C-66.13 79 -53.26 79 -40 79 C-40 65.8 -40 52.6 -40 39 C-26.8 39 -13.6 39 0 39 C0 26.13 0 13.26 0 0 Z " fill="#4AEDD1" transform="translate(178,0)"/>
<path d="M0 0 C51.81 0 103.62 0 157 0 C157 38.94 157 77.88 157 118 C144.13 118 131.26 118 118 118 C118 131.2 118 144.4 118 158 C130.87 158 143.74 158 157 158 C157 209.81 157 261.62 157 315 C105.19 315 53.38 315 0 315 C0 302.13 0 289.26 0 276 C-13.2 276 -26.4 276 -40 276 C-40 288.87 -40 301.74 -40 315 C-52.87 315 -65.74 315 -79 315 C-79 327.87 -79 340.74 -79 354 C-105.07 354 -131.14 354 -158 354 C-158 302.19 -158 250.38 -158 197 C-145.13 197 -132.26 197 -119 197 C-119 170.93 -119 144.86 -119 118 C-105.8 118 -92.6 118 -79 118 C-79 105.13 -79 92.26 -79 79 C-66.13 79 -53.26 79 -40 79 C-40 65.8 -40 52.6 -40 39 C-26.8 39 -13.6 39 0 39 C0 26.13 0 13.26 0 0 Z " fill="#F5FDFC" transform="translate(178,0)"/>
<path d="M0 0 C13.2 0 26.4 0 40 0 C40 12.87 40 25.74 40 39 C117.88 39 195.76 39 276 39 C276 65.07 276 91.14 276 118 C262.8 118 249.6 118 236 118 C236 104.8 236 91.6 236 78 C223.13 78 210.26 78 197 78 C197 117.27 197 156.54 197 197 C145.19 197 93.38 197 40 197 C40 157.73 40 118.46 40 78 C26.8 78 13.6 78 0 78 C0 104.07 0 130.14 0 157 C-26.07 157 -52.14 157 -79 157 C-79 130.93 -79 104.86 -79 78 C-65.8 78 -52.6 78 -39 78 C-39 65.13 -39 52.26 -39 39 C-26.13 39 -13.26 39 0 39 C0 26.13 0 13.26 0 0 Z " fill="#4AEDD1" transform="translate(138,276)"/>
<path d="M0 0 C38.94 0 77.88 0 118 0 C118 26.07 118 52.14 118 79 C130.87 79 143.74 79 157 79 C157 130.81 157 182.62 157 236 C105.19 236 53.38 236 0 236 C0 223.13 0 210.26 0 197 C-13.2 197 -26.4 197 -40 197 C-40 170.93 -40 144.86 -40 118 C-26.8 118 -13.6 118 0 118 C0 79.06 0 40.12 0 0 Z " fill="#8CF4E2" transform="translate(178,79)"/>
<path d="M0 0 C13.2 0 26.4 0 40 0 C40 39.27 40 78.54 40 119 C91.81 119 143.62 119 197 119 C197 79.73 197 40.46 197 0 C209.87 0 222.74 0 236 0 C236 13.2 236 26.4 236 40 C249.2 40 262.4 40 276 40 C276 26.8 276 13.6 276 0 C288.87 0 301.74 0 315 0 C315 26.07 315 52.14 315 79 C302.13 79 289.26 79 276 79 C276 92.2 276 105.4 276 119 C262.8 119 249.6 119 236 119 C236 131.87 236 144.74 236 158 C158.12 158 80.24 158 0 158 C0 145.13 0 132.26 0 119 C-12.87 119 -25.74 119 -39 119 C-39 105.8 -39 92.6 -39 79 C-26.13 79 -13.26 79 0 79 C0 52.93 0 26.86 0 0 Z " fill="#0C3730" transform="translate(138,354)"/>
<path d="M0 0 C51.81 0 103.62 0 157 0 C157 39.27 157 78.54 157 119 C105.19 119 53.38 119 0 119 C0 79.73 0 40.46 0 0 Z " fill="#2CCDB1" transform="translate(178,354)"/>
<path d="M0 0 C38.94 0 77.88 0 118 0 C118 26.07 118 52.14 118 79 C130.87 79 143.74 79 157 79 C157 91.87 157 104.74 157 118 C105.19 118 53.38 118 0 118 C0 79.06 0 40.12 0 0 Z " fill="#D1FAF3" transform="translate(178,79)"/>
<path d="M0 0 C51.81 0 103.62 0 157 0 C157 38.94 157 77.88 157 118 C144.13 118 131.26 118 118 118 C118 105.13 118 92.26 118 79 C79.06 79 40.12 79 0 79 C0 52.93 0 26.86 0 0 Z " fill="#FFFFFF" transform="translate(178,0)"/>
<path d="M0 0 C12.87 0 25.74 0 39 0 C39 13.2 39 26.4 39 40 C52.2 40 65.4 40 79 40 C79 26.8 79 13.6 79 0 C91.87 0 104.74 0 118 0 C118 26.07 118 52.14 118 79 C105.13 79 92.26 79 79 79 C79 92.2 79 105.4 79 119 C52.93 119 26.86 119 0 119 C0 79.73 0 40.46 0 0 Z " fill="#1B7B6B" transform="translate(335,354)"/>
<path d="M0 0 C77.88 0 155.76 0 236 0 C236 26.07 236 52.14 236 79 C222.8 79 209.6 79 196 79 C196 65.8 196 52.6 196 39 C131.32 39 66.64 39 0 39 C0 26.13 0 13.26 0 0 Z " fill="#209581" transform="translate(178,315)"/>
<path d="M0 0 C38.94 0 77.88 0 118 0 C118 12.87 118 25.74 118 39 C104.8 39 91.6 39 78 39 C78 52.2 78 65.4 78 79 C52.26 79 26.52 79 0 79 C0 52.93 0 26.86 0 0 Z " fill="#A2F6E7" transform="translate(178,79)"/>
<path d="M0 0 C13.2 0 26.4 0 40 0 C40 39.27 40 78.54 40 119 C13.93 119 -12.14 119 -39 119 C-39 105.8 -39 92.6 -39 79 C-26.13 79 -13.26 79 0 79 C0 52.93 0 26.86 0 0 Z " fill="#209581" transform="translate(138,354)"/>
<path d="M0 0 C12.87 0 25.74 0 39 0 C39 51.81 39 103.62 39 157 C26.13 157 13.26 157 0 157 C0 105.19 0 53.38 0 0 Z " fill="#0C3730" transform="translate(20,197)"/>
<path d="M0 0 C51.81 0 103.62 0 157 0 C157 12.87 157 25.74 157 39 C105.19 39 53.38 39 0 39 C0 26.13 0 13.26 0 0 Z " fill="#0C3730" transform="translate(178,0)"/>
<path d="M0 0 C13.2 0 26.4 0 40 0 C40 38.94 40 77.88 40 118 C26.8 118 13.6 118 0 118 C0 79.06 0 40.12 0 0 Z " fill="#0C3730" transform="translate(453,236)"/>
<path d="M0 0 C13.2 0 26.4 0 40 0 C40 12.87 40 25.74 40 39 C52.87 39 65.74 39 79 39 C79 52.2 79 65.4 79 79 C52.93 79 26.86 79 0 79 C0 52.93 0 26.86 0 0 Z " fill="#4AEDD1" transform="translate(374,197)"/>
<path d="M0 0 C26.07 0 52.14 0 79 0 C79 26.07 79 52.14 79 79 C65.8 79 52.6 79 39 79 C39 65.8 39 52.6 39 39 C26.13 39 13.26 39 0 39 C0 26.13 0 13.26 0 0 Z " fill="#2CCDB1" transform="translate(335,315)"/>
<path d="M0 0 C13.2 0 26.4 0 40 0 C40 26.07 40 52.14 40 79 C13.93 79 -12.14 79 -39 79 C-39 66.13 -39 53.26 -39 40 C-26.13 40 -13.26 40 0 40 C0 26.8 0 13.6 0 0 Z " fill="#FFFFFF" transform="translate(138,39)"/>
<path d="M0 0 C26.07 0 52.14 0 79 0 C79 25.74 79 51.48 79 78 C66.13 78 53.26 78 40 78 C40 65.13 40 52.26 40 39 C26.8 39 13.6 39 0 39 C0 26.13 0 13.26 0 0 Z " fill="#1B7B6B" transform="translate(374,276)"/>
<path d="M0 0 C12.87 0 25.74 0 39 0 C39 38.94 39 77.88 39 118 C26.13 118 13.26 118 0 118 C0 79.06 0 40.12 0 0 Z " fill="#209581" transform="translate(335,197)"/>
<path d="M0 0 C13.2 0 26.4 0 40 0 C40 26.07 40 52.14 40 79 C26.8 79 13.6 79 0 79 C0 52.93 0 26.86 0 0 Z " fill="#1B7B6B" transform="translate(138,354)"/>
<path d="M0 0 C13.2 0 26.4 0 40 0 C40 26.07 40 52.14 40 79 C26.8 79 13.6 79 0 79 C0 52.93 0 26.86 0 0 Z " fill="#0C3730" transform="translate(59,354)"/>
<path d="M0 0 C13.2 0 26.4 0 40 0 C40 26.07 40 52.14 40 79 C26.8 79 13.6 79 0 79 C0 52.93 0 26.86 0 0 Z " fill="#D1FAF3" transform="translate(138,197)"/>
<path d="M0 0 C13.2 0 26.4 0 40 0 C40 26.07 40 52.14 40 79 C26.8 79 13.6 79 0 79 C0 52.93 0 26.86 0 0 Z " fill="#0C3730" transform="translate(59,118)"/>
<path d="M0 0 C13.2 0 26.4 0 40 0 C40 26.07 40 52.14 40 79 C26.8 79 13.6 79 0 79 C0 52.93 0 26.86 0 0 Z " fill="#0C3730" transform="translate(374,79)"/>
<path d="M0 0 C12.87 0 25.74 0 39 0 C39 26.07 39 52.14 39 79 C26.13 79 13.26 79 0 79 C0 52.93 0 26.86 0 0 Z " fill="#0C3730" transform="translate(414,354)"/>
<path d="M0 0 C12.87 0 25.74 0 39 0 C39 26.07 39 52.14 39 79 C26.13 79 13.26 79 0 79 C0 52.93 0 26.86 0 0 Z " fill="#A2F6E7" transform="translate(99,197)"/>
<path d="M0 0 C12.87 0 25.74 0 39 0 C39 26.07 39 52.14 39 79 C26.13 79 13.26 79 0 79 C0 52.93 0 26.86 0 0 Z " fill="#FFFFFF" transform="translate(99,118)"/>
<path d="M0 0 C12.87 0 25.74 0 39 0 C39 25.74 39 51.48 39 78 C26.13 78 13.26 78 0 78 C0 52.26 0 26.52 0 0 Z " fill="#0C3730" transform="translate(414,158)"/>
<path d="M0 0 C13.2 0 26.4 0 40 0 C40 13.2 40 26.4 40 40 C26.8 40 13.6 40 0 40 C0 26.8 0 13.6 0 0 Z " fill="#0C3730" transform="translate(374,433)"/>
<path d="M0 0 C13.2 0 26.4 0 40 0 C40 13.2 40 26.4 40 40 C26.8 40 13.6 40 0 40 C0 26.8 0 13.6 0 0 Z " fill="#FFFFFF" transform="translate(256,118)"/>
<path d="M0 0 C13.2 0 26.4 0 40 0 C40 13.2 40 26.4 40 40 C26.8 40 13.6 40 0 40 C0 26.8 0 13.6 0 0 Z " fill="#0C3730" transform="translate(138,39)"/>
<path d="M0 0 C12.87 0 25.74 0 39 0 C39 13.2 39 26.4 39 40 C26.13 40 13.26 40 0 40 C0 26.8 0 13.6 0 0 Z " fill="#209581" transform="translate(335,433)"/>
<path d="M0 0 C12.87 0 25.74 0 39 0 C39 13.2 39 26.4 39 40 C26.13 40 13.26 40 0 40 C0 26.8 0 13.6 0 0 Z " fill="#0C3730" transform="translate(99,433)"/>
<path d="M0 0 C13.2 0 26.4 0 40 0 C40 12.87 40 25.74 40 39 C26.8 39 13.6 39 0 39 C0 26.13 0 13.26 0 0 Z " fill="#209581" transform="translate(374,394)"/>
<path d="M0 0 C13.2 0 26.4 0 40 0 C40 12.87 40 25.74 40 39 C26.8 39 13.6 39 0 39 C0 26.13 0 13.26 0 0 Z " fill="#2CCDB1" transform="translate(138,276)"/>
<path d="M0 0 C12.87 0 25.74 0 39 0 C39 13.2 39 26.4 39 40 C26.13 40 13.26 40 0 40 C0 26.8 0 13.6 0 0 Z " fill="#30DBBD" transform="translate(414,236)"/>
<path d="M0 0 C13.2 0 26.4 0 40 0 C40 12.87 40 25.74 40 39 C26.8 39 13.6 39 0 39 C0 26.13 0 13.26 0 0 Z " fill="#FFFFFF" transform="translate(138,197)"/>
<path d="M0 0 C13.2 0 26.4 0 40 0 C40 12.87 40 25.74 40 39 C26.8 39 13.6 39 0 39 C0 26.13 0 13.26 0 0 Z " fill="#30DBBD" transform="translate(374,158)"/>
<path d="M0 0 C13.2 0 26.4 0 40 0 C40 12.87 40 25.74 40 39 C26.8 39 13.6 39 0 39 C0 26.13 0 13.26 0 0 Z " fill="#A2F6E7" transform="translate(138,158)"/>
<path d="M0 0 C12.87 0 25.74 0 39 0 C39 13.2 39 26.4 39 40 C26.13 40 13.26 40 0 40 C0 26.8 0 13.6 0 0 Z " fill="#0C3730" transform="translate(335,39)"/>
<path d="M0 0 C12.87 0 25.74 0 39 0 C39 12.87 39 25.74 39 39 C26.13 39 13.26 39 0 39 C0 26.13 0 13.26 0 0 Z " fill="#30DBBD" transform="translate(99,394)"/>
<path d="M0 0 C12.87 0 25.74 0 39 0 C39 12.87 39 25.74 39 39 C26.13 39 13.26 39 0 39 C0 26.13 0 13.26 0 0 Z " fill="#209581" transform="translate(414,315)"/>
<path d="M0 0 C12.87 0 25.74 0 39 0 C39 12.87 39 25.74 39 39 C26.13 39 13.26 39 0 39 C0 26.13 0 13.26 0 0 Z " fill="#D1FAF3" transform="translate(99,276)"/>
<path d="M0 0 C12.87 0 25.74 0 39 0 C39 12.87 39 25.74 39 39 C26.13 39 13.26 39 0 39 C0 26.13 0 13.26 0 0 Z " fill="#FFFFFF" transform="translate(178,158)"/>
<path d="M0 0 C12.87 0 25.74 0 39 0 C39 12.87 39 25.74 39 39 C26.13 39 13.26 39 0 39 C0 26.13 0 13.26 0 0 Z " fill="#30DBBD" transform="translate(335,79)"/>
<path d="M0 0 C12.87 0 25.74 0 39 0 C39 12.87 39 25.74 39 39 C26.13 39 13.26 39 0 39 C0 26.13 0 13.26 0 0 Z " fill="#D1FAF3" transform="translate(296,79)"/>
<path d="M0 0 C12.87 0 25.74 0 39 0 C39 12.87 39 25.74 39 39 C26.13 39 13.26 39 0 39 C0 26.13 0 13.26 0 0 Z " fill="#0C3730" transform="translate(99,79)"/>
</svg>
