<?xml version="1.0" encoding="UTF-8"?>
<svg version="1.1" xmlns="http://www.w3.org/2000/svg" width="542" height="542">
<path d="M0 0 C68.64 0 137.28 0 208 0 C208 13.86 208 27.72 208 42 C249.25 42 290.5 42 333 42 C333 83.25 333 124.5 333 167 C346.86 167 360.72 167 375 167 C375 235.64 375 304.28 375 375 C361.14 375 347.28 375 333 375 C333 388.86 333 402.72 333 417 C319.14 417 305.28 417 291 417 C291 403.14 291 389.28 291 375 C277.47 375 263.94 375 250 375 C250 319.89 250 264.78 250 208 C236.14 208 222.28 208 208 208 C208 221.86 208 235.72 208 250 C194.14 250 180.28 250 166 250 C166 263.86 166 277.72 166 292 C152.47 292 138.94 292 125 292 C125 305.53 125 319.06 125 333 C111.14 333 97.28 333 83 333 C83 346.86 83 360.72 83 375 C69.14 375 55.28 375 41 375 C41 388.86 41 402.72 41 417 C27.47 417 13.94 417 0 417 C0 430.53 0 444.06 0 458 C-13.86 458 -27.72 458 -42 458 C-42 471.86 -42 485.72 -42 500 C-55.86 500 -69.72 500 -84 500 C-84 513.86 -84 527.72 -84 542 C-111.39 542 -138.78 542 -167 542 C-167 514.28 -167 486.56 -167 458 C-153.14 458 -139.28 458 -125 458 C-125 444.47 -125 430.94 -125 417 C-111.47 417 -97.94 417 -84 417 C-84 403.14 -84 389.28 -84 375 C-70.14 375 -56.28 375 -42 375 C-42 361.14 -42 347.28 -42 333 C-28.14 333 -14.28 333 0 333 C0 319.47 0 305.94 0 292 C13.53 292 27.06 292 41 292 C41 278.14 41 264.28 41 250 C54.86 250 68.72 250 83 250 C83 236.14 83 222.28 83 208 C96.86 208 110.72 208 125 208 C125 194.47 125 180.94 125 167 C138.53 167 152.06 167 166 167 C166 153.14 166 139.28 166 125 C111.22 125 56.44 125 0 125 C0 111.14 0 97.28 0 83 C-13.86 83 -27.72 83 -42 83 C-42 69.47 -42 55.94 -42 42 C-28.14 42 -14.28 42 0 42 C0 28.14 0 14.28 0 0 Z " fill="#12B69C" transform="translate(167,0)"/>
<path d="M0 0 C13.86 0 27.72 0 42 0 C42 13.86 42 27.72 42 42 C55.86 42 69.72 42 84 42 C84 55.53 84 69.06 84 83 C70.14 83 56.28 83 42 83 C42 96.86 42 110.72 42 125 C28.14 125 14.28 125 0 125 C0 138.86 0 152.72 0 167 C-13.53 167 -27.06 167 -41 167 C-41 180.53 -41 194.06 -41 208 C-54.86 208 -68.72 208 -83 208 C-83 221.86 -83 235.72 -83 250 C-96.86 250 -110.72 250 -125 250 C-125 263.86 -125 277.72 -125 292 C-138.53 292 -152.06 292 -166 292 C-166 305.53 -166 319.06 -166 333 C-179.86 333 -193.72 333 -208 333 C-208 346.86 -208 360.72 -208 375 C-221.86 375 -235.72 375 -250 375 C-250 388.86 -250 402.72 -250 417 C-277.39 417 -304.78 417 -333 417 C-333 389.28 -333 361.56 -333 333 C-319.14 333 -305.28 333 -291 333 C-291 319.47 -291 305.94 -291 292 C-277.47 292 -263.94 292 -250 292 C-250 278.14 -250 264.28 -250 250 C-236.14 250 -222.28 250 -208 250 C-208 236.14 -208 222.28 -208 208 C-194.14 208 -180.28 208 -166 208 C-166 194.47 -166 180.94 -166 167 C-152.47 167 -138.94 167 -125 167 C-125 153.14 -125 139.28 -125 125 C-111.14 125 -97.28 125 -83 125 C-83 111.14 -83 97.28 -83 83 C-69.14 83 -55.28 83 -41 83 C-41 69.47 -41 55.94 -41 42 C-27.47 42 -13.94 42 0 42 C0 28.14 0 14.28 0 0 Z " fill="#573C18" transform="translate(333,125)"/>
<path d="M0 0 C13.86 0 27.72 0 42 0 C42 68.64 42 137.28 42 208 C28.14 208 14.28 208 0 208 C0 221.86 0 235.72 0 250 C-13.86 250 -27.72 250 -42 250 C-42 236.14 -42 222.28 -42 208 C-55.53 208 -69.06 208 -83 208 C-83 152.89 -83 97.78 -83 41 C-55.61 41 -28.22 41 0 41 C0 27.47 0 13.94 0 0 Z " fill="#12B69C" transform="translate(500,167)"/>
<path d="M0 0 C41.25 0 82.5 0 125 0 C125 41.25 125 82.5 125 125 C111.14 125 97.28 125 83 125 C83 111.14 83 97.28 83 83 C69.47 83 55.94 83 42 83 C42 69.14 42 55.28 42 41 C28.14 41 14.28 41 0 41 C0 27.47 0 13.94 0 0 Z " fill="#6C4B1D" transform="translate(375,42)"/>
<path d="M0 0 C13.86 0 27.72 0 42 0 C42 68.64 42 137.28 42 208 C28.14 208 14.28 208 0 208 C0 139.36 0 70.72 0 0 Z " fill="#0A3931" transform="translate(500,167)"/>
<path d="M0 0 C68.64 0 137.28 0 208 0 C208 13.86 208 27.72 208 42 C139.36 42 70.72 42 0 42 C0 28.14 0 14.28 0 0 Z " fill="#0A3931" transform="translate(167,0)"/>
<path d="M0 0 C54.78 0 109.56 0 166 0 C166 13.86 166 27.72 166 42 C111.22 42 56.44 42 0 42 C0 28.14 0 14.28 0 0 Z " fill="#0A3931" transform="translate(167,83)"/>
<path d="M0 0 C27.39 0 54.78 0 83 0 C83 13.86 83 27.72 83 42 C96.86 42 110.72 42 125 42 C125 55.53 125 69.06 125 83 C97.61 83 70.22 83 42 83 C42 69.47 42 55.94 42 42 C28.14 42 14.28 42 0 42 C0 28.14 0 14.28 0 0 Z " fill="#12B69C" transform="translate(375,125)"/>
<path d="M0 0 C13.53 0 27.06 0 41 0 C41 55.11 41 110.22 41 167 C27.47 167 13.94 167 0 167 C0 111.89 0 56.78 0 0 Z " fill="#0A3931" transform="translate(417,208)"/>
<path d="M0 0 C41.25 0 82.5 0 125 0 C125 13.53 125 27.06 125 41 C83.75 41 42.5 41 0 41 C0 27.47 0 13.94 0 0 Z " fill="#34BEA9" transform="translate(125,42)"/>
<path d="M0 0 C13.86 0 27.72 0 42 0 C42 27.72 42 55.44 42 84 C28.14 84 14.28 84 0 84 C0 56.28 0 28.56 0 0 Z " fill="#0A3931" transform="translate(458,83)"/>
<path d="M0 0 C27.72 0 55.44 0 84 0 C84 13.86 84 27.72 84 42 C56.28 42 28.56 42 0 42 C0 28.14 0 14.28 0 0 Z " fill="#12B69C" transform="translate(333,83)"/>
<path d="M0 0 C13.86 0 27.72 0 42 0 C42 13.86 42 27.72 42 42 C28.14 42 14.28 42 0 42 C0 28.14 0 14.28 0 0 Z " fill="#6C4B1D" transform="translate(0,500)"/>
<path d="M0 0 C13.86 0 27.72 0 42 0 C42 13.86 42 27.72 42 42 C28.14 42 14.28 42 0 42 C0 28.14 0 14.28 0 0 Z " fill="#281910" transform="translate(83,458)"/>
<path d="M0 0 C13.86 0 27.72 0 42 0 C42 13.86 42 27.72 42 42 C28.14 42 14.28 42 0 42 C0 28.14 0 14.28 0 0 Z " fill="#493215" transform="translate(0,458)"/>
<path d="M0 0 C13.86 0 27.72 0 42 0 C42 13.86 42 27.72 42 42 C28.14 42 14.28 42 0 42 C0 28.14 0 14.28 0 0 Z " fill="#0A3931" transform="translate(458,375)"/>
<path d="M0 0 C13.86 0 27.72 0 42 0 C42 13.86 42 27.72 42 42 C28.14 42 14.28 42 0 42 C0 28.14 0 14.28 0 0 Z " fill="#8B6327" transform="translate(125,375)"/>
<path d="M0 0 C13.86 0 27.72 0 42 0 C42 13.86 42 27.72 42 42 C28.14 42 14.28 42 0 42 C0 28.14 0 14.28 0 0 Z " fill="#6BC8BB" transform="translate(458,333)"/>
<path d="M0 0 C13.86 0 27.72 0 42 0 C42 13.86 42 27.72 42 42 C28.14 42 14.28 42 0 42 C0 28.14 0 14.28 0 0 Z " fill="#281910" transform="translate(208,333)"/>
<path d="M0 0 C13.86 0 27.72 0 42 0 C42 13.86 42 27.72 42 42 C28.14 42 14.28 42 0 42 C0 28.14 0 14.28 0 0 Z " fill="#493215" transform="translate(125,333)"/>
<path d="M0 0 C13.86 0 27.72 0 42 0 C42 13.86 42 27.72 42 42 C28.14 42 14.28 42 0 42 C0 28.14 0 14.28 0 0 Z " fill="#6C4B1D" transform="translate(250,250)"/>
<path d="M0 0 C13.86 0 27.72 0 42 0 C42 13.86 42 27.72 42 42 C28.14 42 14.28 42 0 42 C0 28.14 0 14.28 0 0 Z " fill="#281910" transform="translate(333,208)"/>
<path d="M0 0 C13.86 0 27.72 0 42 0 C42 13.86 42 27.72 42 42 C28.14 42 14.28 42 0 42 C0 28.14 0 14.28 0 0 Z " fill="#34BEA9" transform="translate(375,125)"/>
<path d="M0 0 C13.86 0 27.72 0 42 0 C42 13.86 42 27.72 42 42 C28.14 42 14.28 42 0 42 C0 28.14 0 14.28 0 0 Z " fill="#281910" transform="translate(458,83)"/>
<path d="M0 0 C13.53 0 27.06 0 41 0 C41 13.86 41 27.72 41 42 C27.47 42 13.94 42 0 42 C0 28.14 0 14.28 0 0 Z " fill="#281910" transform="translate(42,500)"/>
<path d="M0 0 C13.53 0 27.06 0 41 0 C41 13.86 41 27.72 41 42 C27.47 42 13.94 42 0 42 C0 28.14 0 14.28 0 0 Z " fill="#8B6327" transform="translate(42,458)"/>
<path d="M0 0 C13.86 0 27.72 0 42 0 C42 13.53 42 27.06 42 41 C28.14 41 14.28 41 0 41 C0 27.47 0 13.94 0 0 Z " fill="#281910" transform="translate(125,417)"/>
<path d="M0 0 C13.53 0 27.06 0 41 0 C41 13.86 41 27.72 41 42 C27.47 42 13.94 42 0 42 C0 28.14 0 14.28 0 0 Z " fill="#281910" transform="translate(167,375)"/>
<path d="M0 0 C13.86 0 27.72 0 42 0 C42 13.53 42 27.06 42 41 C28.14 41 14.28 41 0 41 C0 27.47 0 13.94 0 0 Z " fill="#34BEA9" transform="translate(458,292)"/>
<path d="M0 0 C13.86 0 27.72 0 42 0 C42 13.53 42 27.06 42 41 C28.14 41 14.28 41 0 41 C0 27.47 0 13.94 0 0 Z " fill="#281910" transform="translate(250,292)"/>
<path d="M0 0 C13.86 0 27.72 0 42 0 C42 13.53 42 27.06 42 41 C28.14 41 14.28 41 0 41 C0 27.47 0 13.94 0 0 Z " fill="#8B6327" transform="translate(208,292)"/>
<path d="M0 0 C13.53 0 27.06 0 41 0 C41 13.86 41 27.72 41 42 C27.47 42 13.94 42 0 42 C0 28.14 0 14.28 0 0 Z " fill="#281910" transform="translate(292,250)"/>
<path d="M0 0 C13.53 0 27.06 0 41 0 C41 13.86 41 27.72 41 42 C27.47 42 13.94 42 0 42 C0 28.14 0 14.28 0 0 Z " fill="#8B6327" transform="translate(292,208)"/>
<path d="M0 0 C13.86 0 27.72 0 42 0 C42 13.53 42 27.06 42 41 C28.14 41 14.28 41 0 41 C0 27.47 0 13.94 0 0 Z " fill="#34BEA9" transform="translate(458,167)"/>
<path d="M0 0 C13.86 0 27.72 0 42 0 C42 13.53 42 27.06 42 41 C28.14 41 14.28 41 0 41 C0 27.47 0 13.94 0 0 Z " fill="#281910" transform="translate(375,167)"/>
<path d="M0 0 C13.53 0 27.06 0 41 0 C41 13.86 41 27.72 41 42 C27.47 42 13.94 42 0 42 C0 28.14 0 14.28 0 0 Z " fill="#8B6327" transform="translate(417,83)"/>
<path d="M0 0 C13.86 0 27.72 0 42 0 C42 13.53 42 27.06 42 41 C28.14 41 14.28 41 0 41 C0 27.47 0 13.94 0 0 Z " fill="#0A3931" transform="translate(375,42)"/>
<path d="M0 0 C13.86 0 27.72 0 42 0 C42 13.53 42 27.06 42 41 C28.14 41 14.28 41 0 41 C0 27.47 0 13.94 0 0 Z " fill="#34BEA9" transform="translate(333,42)"/>
<path d="M0 0 C13.86 0 27.72 0 42 0 C42 13.53 42 27.06 42 41 C28.14 41 14.28 41 0 41 C0 27.47 0 13.94 0 0 Z " fill="#0A3931" transform="translate(125,42)"/>
<path d="M0 0 C13.53 0 27.06 0 41 0 C41 13.53 41 27.06 41 41 C27.47 41 13.94 41 0 41 C0 27.47 0 13.94 0 0 Z " fill="#493215" transform="translate(42,417)"/>
<path d="M0 0 C13.53 0 27.06 0 41 0 C41 13.53 41 27.06 41 41 C27.47 41 13.94 41 0 41 C0 27.47 0 13.94 0 0 Z " fill="#493215" transform="translate(167,292)"/>
<path d="M0 0 C13.53 0 27.06 0 41 0 C41 13.53 41 27.06 41 41 C27.47 41 13.94 41 0 41 C0 27.47 0 13.94 0 0 Z " fill="#493215" transform="translate(292,167)"/>
<path d="M0 0 C13.53 0 27.06 0 41 0 C41 13.53 41 27.06 41 41 C27.47 41 13.94 41 0 41 C0 27.47 0 13.94 0 0 Z " fill="#493215" transform="translate(417,42)"/>
<path d="M0 0 C13.53 0 27.06 0 41 0 C41 13.53 41 27.06 41 41 C27.47 41 13.94 41 0 41 C0 27.47 0 13.94 0 0 Z " fill="#6BC8BB" transform="translate(167,42)"/>
</svg>
