<?xml version="1.0" encoding="UTF-8"?>
<svg version="1.1" xmlns="http://www.w3.org/2000/svg" width="994" height="994">
<path d="M0 0 C54.45 0 108.9 0 165 0 C165 55.11 165 110.22 165 167 C139.755 167.495 139.755 167.495 114 168 C113.67 186.81 113.34 205.62 113 225 C94.19 225.33 75.38 225.66 56 226 C55.67 245.47 55.34 264.94 55 285 C37.51 285.33 20.02 285.66 2 286 C1.67 302.83 1.34 319.66 1 337 C-19.13 337.33 -39.26 337.66 -60 338 C-60.33 356.81 -60.66 375.62 -61 395 C-79.81 394.67 -98.62 394.34 -118 394 C-118 414.13 -118 434.26 -118 455 C-136.48 455 -154.96 455 -174 455 C-174 473.15 -174 491.3 -174 510 C-191.49 510.33 -208.98 510.66 -227 511 C-227.33 528.49 -227.66 545.98 -228 564 C-248.46 564 -268.92 564 -290 564 C-289.67 582.81 -289.34 601.62 -289 621 C-268.87 621.33 -248.74 621.66 -228 622 C-227.67 641.47 -227.34 660.94 -227 681 C-200.765 681.495 -200.765 681.495 -174 682 C-174 717.97 -174 753.94 -174 791 C-212.61 791 -251.22 791 -291 791 C-291.33 773.51 -291.66 756.02 -292 738 C-329.95 737.67 -367.9 737.34 -407 737 C-407 718.85 -407 700.7 -407 682 C-424.82 682 -442.64 682 -461 682 C-461 700.15 -461 718.3 -461 737 C-463.63132399 738.31566199 -465.5144152 738.08011071 -468.45947266 738.02172852 C-470.17102036 737.99158409 -470.17102036 737.99158409 -471.91714478 737.96083069 C-473.15362762 737.93379562 -474.39011047 737.90676056 -475.6640625 737.87890625 C-476.92640717 737.85529526 -478.18875183 737.83168427 -479.48934937 737.80735779 C-482.84644995 737.74364001 -486.20339958 737.67544406 -489.56036377 737.60510254 C-492.98548291 737.53442725 -496.41071145 737.46954882 -499.8359375 737.40429688 C-506.55744291 737.2758215 -513.27865101 737.13764577 -520 737 C-520 754.82 -520 772.64 -520 791 C-537.82 791 -555.64 791 -574 791 C-574 828.95 -574 866.9 -574 906 C-631.09 906 -688.18 906 -747 906 C-747 850.23 -747 794.46 -747 737 C-693.54 736.505 -693.54 736.505 -639 736 C-638.67 718.18 -638.34 700.36 -638 682 C-617.21 682 -596.42 682 -575 682 C-575 662.2 -575 642.4 -575 622 C-557.51 621.67 -540.02 621.34 -522 621 C-521.67 602.19 -521.34 583.38 -521 564 C-538.82 564 -556.64 564 -575 564 C-575 528.03 -575 492.06 -575 455 C-596.12 455 -617.24 455 -639 455 C-639 416.06 -639 377.12 -639 337 C-599.73 337 -560.46 337 -520 337 C-520 355.81 -520 374.62 -520 394 C-500.53 394 -481.06 394 -461 394 C-460.67 413.8 -460.34 433.6 -460 454 C-442.51 454.33 -425.02 454.66 -407 455 C-407 434.87 -407 414.74 -407 394 C-387.2 393.67 -367.4 393.34 -347 393 C-346.67 374.52 -346.34 356.04 -346 337 C-319.27 336.505 -319.27 336.505 -292 336 C-291.67 319.17 -291.34 302.34 -291 285 C-270.87 284.67 -250.74 284.34 -230 284 C-229.67 264.53 -229.34 245.06 -229 225 C-211.18 225 -193.36 225 -175 225 C-175 205.86 -175 186.72 -175 167 C-156.52 167 -138.04 167 -119 167 C-119 150.17 -119 133.34 -119 116 C-100.19 116 -81.38 116 -62 116 C-62.33 96.53 -62.66 77.06 -63 57 C-32.31 56.505 -32.31 56.505 -1 56 C-0.67 37.52 -0.34 19.04 0 0 Z " fill="#30DFC1" transform="translate(787,28)"/>
<path d="M0 0 C18.15 0 36.3 0 55 0 C55 35.64 55 71.28 55 108 C93.28 108 131.56 108 171 108 C171 90.18 171 72.36 171 54 C179.05916691 53.97905501 187.11823579 53.95901686 195.17740631 53.94824982 C198.93005024 53.94295992 202.68267175 53.93588609 206.43530273 53.92456055 C210.04681687 53.91372859 213.65830921 53.90772251 217.26983833 53.90512276 C218.65060329 53.90326906 220.031367 53.89964951 221.41212273 53.89426994 C223.33975952 53.88705553 225.26741807 53.88659191 227.19506836 53.88647461 C228.29427109 53.884254 229.39347382 53.88203339 230.52598572 53.87974548 C233 54 233 54 234 55 C234.09346915 56.65738443 234.11744977 58.31874644 234.11352539 59.97875977 C234.11334412 61.59264587 234.11334412 61.59264587 234.11315918 63.23913574 C234.10548523 64.94800964 234.10548523 64.94800964 234.09765625 66.69140625 C234.09664917 67.73228394 234.09564209 68.77316162 234.09460449 69.84558105 C234.08935401 73.75123184 234.07539289 77.65686697 234.0625 81.5625 C234.041875 90.286875 234.02125 99.01125 234 108 C213.54 108 193.08 108 172 108 C172.33 126.81 172.66 145.62 173 165 C203.195 165.495 203.195 165.495 234 166 C234.33 185.47 234.66 204.94 235 225 C252.49 225.33 269.98 225.66 288 226 C288 261.97 288 297.94 288 335 C249.39 335 210.78 335 171 335 C170.67 317.51 170.34 300.02 170 282 C132.05 281.67 94.1 281.34 55 281 C55 262.85 55 244.7 55 226 C37.18 226 19.36 226 1 226 C1 244.15 1 262.3 1 281 C-1.63132399 282.31566199 -3.5144152 282.08011071 -6.45947266 282.02172852 C-7.60050446 282.00163223 -8.74153625 281.98153595 -9.91714478 281.96083069 C-11.15362762 281.93379562 -12.39011047 281.90676056 -13.6640625 281.87890625 C-14.92640717 281.85529526 -16.18875183 281.83168427 -17.48934937 281.80735779 C-20.84644995 281.74364001 -24.20339958 281.67544406 -27.56036377 281.60510254 C-30.98548291 281.53442725 -34.41071145 281.46954882 -37.8359375 281.40429688 C-44.55744291 281.2758215 -51.27865101 281.13764577 -58 281 C-58 298.82 -58 316.64 -58 335 C-75.82 335 -93.64 335 -112 335 C-112 372.95 -112 410.9 -112 450 C-169.09 450 -226.18 450 -285 450 C-285 394.23 -285 338.46 -285 281 C-231.54 280.505 -231.54 280.505 -177 280 C-176.67 262.18 -176.34 244.36 -176 226 C-155.21 226 -134.42 226 -113 226 C-113 206.2 -113 186.4 -113 166 C-95.51 165.67 -78.02 165.34 -60 165 C-59.67 146.19 -59.34 127.38 -59 108 C-39.53 108 -20.06 108 0 108 C0 72.36 0 36.72 0 0 Z " fill="#493515" transform="translate(325,484)"/>
<path d="M0 0 C54.45 0 108.9 0 165 0 C165 55.11 165 110.22 165 167 C139.755 167.495 139.755 167.495 114 168 C113.67 186.81 113.34 205.62 113 225 C84.785 225.495 84.785 225.495 56 226 C55.67 245.47 55.34 264.94 55 285 C46.29625 285.020625 37.5925 285.04125 28.625 285.0625 C25.87623535 285.071604 23.1274707 285.08070801 20.29541016 285.09008789 C18.1266281 285.09300737 15.9578455 285.09555586 13.7890625 285.09765625 C12.6549292 285.10277222 11.5207959 285.10788818 10.35229492 285.11315918 C9.2764917 285.11328003 8.20068848 285.11340088 7.09228516 285.11352539 C6.15518707 285.115746 5.21808899 285.11796661 4.25259399 285.12025452 C2 285 2 285 0 284 C-0.33 264.86 -0.66 245.72 -1 226 C-31.195 225.505 -31.195 225.505 -62 225 C-62 206.19 -62 187.38 -62 168 C-80.81 168 -99.62 168 -119 168 C-119 186.81 -119 205.62 -119 225 C-137.48 225 -155.96 225 -175 225 C-175 205.86 -175 186.72 -175 167 C-156.52 167 -138.04 167 -119 167 C-119 150.17 -119 133.34 -119 116 C-100.19 116 -81.38 116 -62 116 C-62.33 96.53 -62.66 77.06 -63 57 C-42.54 56.67 -22.08 56.34 -1 56 C-0.67 37.52 -0.34 19.04 0 0 Z " fill="#0D3D35" transform="translate(787,28)"/>
<path d="M0 0 C18.15 0 36.3 0 55 0 C55 35.64 55 71.28 55 108 C93.28 108 131.56 108 171 108 C171 90.18 171 72.36 171 54 C179.05916691 53.97905501 187.11823579 53.95901686 195.17740631 53.94824982 C198.93005024 53.94295992 202.68267175 53.93588609 206.43530273 53.92456055 C210.04681687 53.91372859 213.65830921 53.90772251 217.26983833 53.90512276 C218.65060329 53.90326906 220.031367 53.89964951 221.41212273 53.89426994 C223.33975952 53.88705553 225.26741807 53.88659191 227.19506836 53.88647461 C228.29427109 53.884254 229.39347382 53.88203339 230.52598572 53.87974548 C233 54 233 54 234 55 C234.09346915 56.65738443 234.11744977 58.31874644 234.11352539 59.97875977 C234.11340454 61.05468384 234.11328369 62.13060791 234.11315918 63.23913574 C234.10804321 64.37838501 234.10292725 65.51763428 234.09765625 66.69140625 C234.09664917 67.73228394 234.09564209 68.77316162 234.09460449 69.84558105 C234.08935401 73.75123184 234.07539289 77.65686697 234.0625 81.5625 C234.041875 90.286875 234.02125 99.01125 234 108 C213.54 108 193.08 108 172 108 C172.33 126.81 172.66 145.62 173 165 C203.195 165.495 203.195 165.495 234 166 C234.33 185.47 234.66 204.94 235 225 C252.49 225.33 269.98 225.66 288 226 C288 261.97 288 297.94 288 335 C249.39 335 210.78 335 171 335 C170.67 317.51 170.34 300.02 170 282 C132.05 281.67 94.1 281.34 55 281 C55 243.05 55 205.1 55 166 C36.85 166 18.7 166 0 166 C0 111.22 0 56.44 0 0 Z " fill="#0B3931" transform="translate(325,484)"/>
<path d="M0 0 C35.64 0 71.28 0 108 0 C108 17.49 108 34.98 108 53 C128.46 53 148.92 53 170 53 C170 90.62 170 128.24 170 167 C113.9 167 57.8 167 0 167 C0 111.89 0 56.78 0 0 Z " fill="#07251F" transform="translate(41,766)"/>
<path d="M0 0 C39.27 0 78.54 0 119 0 C119 18.81 119 37.62 119 57 C138.47 57 157.94 57 178 57 C178.02094532 64.7986394 178.04098343 72.59717749 178.05175018 80.39582062 C178.05703996 84.02715757 178.06411357 87.65847135 178.07543945 91.28979492 C178.08627184 94.78459975 178.09227758 98.27938204 178.09487724 101.77420235 C178.09763551 103.76239389 178.10544688 105.75057631 178.11329651 107.73875427 C178.11337204 108.93992386 178.11344757 110.14109344 178.11352539 111.37866211 C178.115746 112.44233505 178.11796661 113.506008 178.12025452 114.60191345 C178 117 178 117 177 118 C175.15881971 118.09381302 173.31402359 118.11743954 171.47045898 118.11352539 C169.67384827 118.11334412 169.67384827 118.11334412 167.84094238 118.11315918 C166.57214233 118.10804321 165.30334229 118.10292725 163.99609375 118.09765625 C162.83726685 118.09664917 161.67843994 118.09564209 160.48449707 118.09460449 C156.13548805 118.08935327 151.78649308 118.07539216 147.4375 118.0625 C132.8659375 118.0315625 132.8659375 118.0315625 118 118 C118 153.97 118 189.94 118 227 C100.18 227 82.36 227 64 227 C64 191.03 64 155.06 64 118 C42.88 118 21.76 118 0 118 C0 79.06 0 40.12 0 0 Z " fill="#1D5E52" transform="translate(148,365)"/>
<path d="M0 0 C36.63 0 73.26 0 111 0 C111.70428548 36.3587378 112.10390144 72.63449521 112 109 C92.86 109 73.72 109 54 109 C54 128.14 54 147.28 54 167 C40.9134375 167.0309375 40.9134375 167.0309375 27.5625 167.0625 C24.80463135 167.071604 22.0467627 167.08070801 19.20532227 167.09008789 C17.03401742 167.09300684 14.86271204 167.09555545 12.69140625 167.09765625 C11.55215698 167.10277222 10.41290771 167.10788818 9.23913574 167.11315918 C8.16321167 167.11328003 7.0872876 167.11340088 5.97875977 167.11352539 C4.56978172 167.11685631 4.56978172 167.11685631 3.13233948 167.12025452 C1 167 1 167 0 166 C-0.1231517 164.25161165 -0.17787811 162.49835496 -0.20532227 160.74584961 C-0.2352401 159.06421974 -0.2352401 159.06421974 -0.26576233 157.34861755 C-0.28247482 156.1288472 -0.29918732 154.90907684 -0.31640625 153.65234375 C-0.33718735 152.41078018 -0.35796844 151.16921661 -0.37937927 149.89002991 C-0.43383609 146.58400877 -0.48404205 143.27797755 -0.53222656 139.97186279 C-0.58239856 136.60032509 -0.63810701 133.22887947 -0.69335938 129.85742188 C-0.80070038 123.23835449 -0.90244198 116.6192184 -1 110 C-1.73693588 109.98969254 -2.47387177 109.97938507 -3.23313904 109.96876526 C-10.16421076 109.87095357 -17.09519902 109.76846284 -24.02612209 109.66066074 C-27.58972968 109.60539973 -31.15334543 109.55197482 -34.71704102 109.50268555 C-38.81015245 109.44599468 -42.9031061 109.38142682 -46.99609375 109.31640625 C-48.28148544 109.29969376 -49.56687714 109.28298126 -50.89122009 109.26576233 C-52.07236893 109.24581711 -53.25351776 109.22587189 -54.47045898 109.20532227 C-55.51636703 109.18977798 -56.56227509 109.1742337 -57.63987732 109.15821838 C-60 109 -60 109 -61 108 C-61.09326716 106.43452952 -61.11745582 104.86487228 -61.11352539 103.29663086 C-61.11340454 102.28161499 -61.11328369 101.26659912 -61.11315918 100.2208252 C-61.10804321 99.14635132 -61.10292725 98.07187744 -61.09765625 96.96484375 C-61.09664917 95.98294067 -61.09564209 95.0010376 -61.09460449 93.98937988 C-61.08935445 90.30540812 -61.07539332 86.62145294 -61.0625 82.9375 C-61.041875 74.708125 -61.02125 66.47875 -61 58 C-40.87 58 -20.74 58 0 58 C0 38.86 0 19.72 0 0 Z " fill="#33EACA" transform="translate(787,86)"/>
<path d="M0 0 C20.13 0 40.26 0 61 0 C61 56.1 61 112.2 61 170 C40.87 170 20.74 170 0 170 C0 134.36 0 98.72 0 62 C-18.15 62 -36.3 62 -55 62 C-55 97.64 -55 133.28 -55 170 C-74.47 170 -93.94 170 -114 170 C-114 134.03 -114 98.06 -114 61 C-75.86516144 60.21100334 -38.12935312 60.05464414 0 61 C0 40.87 0 20.74 0 0 Z " fill="#32E9CA" transform="translate(380,422)"/>
<path d="M0 0 C18.81 0 37.62 0 57 0 C57 18.81 57 37.62 57 57 C63.58775391 56.98259766 63.58775391 56.98259766 70.30859375 56.96484375 C73.8012667 56.95841687 77.29393798 56.95299262 80.78661346 56.94824982 C84.47860391 56.94295998 88.17057155 56.93588626 91.86254883 56.92456055 C95.41570831 56.91372838 98.96884563 56.90772247 102.52202034 56.90512276 C103.88045666 56.9032691 105.23889171 56.89964962 106.59731865 56.89426994 C108.49382223 56.88705525 110.39034793 56.88659191 112.28686523 56.88647461 C113.36830307 56.884254 114.44974091 56.88203339 115.56394958 56.87974548 C118 57 118 57 119 58 C119.09376053 59.81055025 119.1174411 61.62477201 119.11352539 63.43774414 C119.11344986 64.59887222 119.11337433 65.76000031 119.11329651 66.95631409 C119.10813522 68.219832 119.10297394 69.48334991 119.09765625 70.78515625 C119.09553383 72.71408974 119.09553383 72.71408974 119.09336853 74.68199158 C119.08954418 78.10643443 119.07971462 81.53083509 119.06866455 84.95526123 C119.05844864 88.44738189 119.05387053 91.93950934 119.04882812 95.43164062 C119.03809227 102.28777778 119.02101684 109.14388687 119 116 C119.66 116 120.32 116 121 116 C121 116.66 121 117.32 121 118 C112.50002288 118.03337093 104.00003441 118.05182147 95.5 118.0625 C94.48577909 118.06378403 94.48577909 118.06378403 93.45106888 118.06509399 C60.94506525 118.10107551 28.44181644 117.80288609 -4.0625 117.5 C-5.34613434 117.48804218 -6.62976868 117.47608437 -7.95230103 117.46376419 C-23.9682516 117.31410964 -39.98412452 117.15770864 -56 117 C-56 97.2 -56 77.4 -56 57 C-37.52 57 -19.04 57 0 57 C0 38.19 0 19.38 0 0 Z " fill="#33E9CA" transform="translate(668,196)"/>
<path d="M0 0 C1.29816021 0.01281384 2.59632042 0.02562767 3.93381882 0.0388298 C20.16437672 0.20025527 36.39465391 0.37966248 52.625 0.5625 C52.625 20.0325 52.625 39.5025 52.625 59.5625 C52.295 59.5625 51.965 59.5625 51.625 59.5625 C51.625 40.4225 51.625 21.2825 51.625 1.5625 C14.995 1.5625 -21.635 1.5625 -59.375 1.5625 C-59.375 20.7025 -59.375 39.8425 -59.375 59.5625 C-79.505 59.5625 -99.635 59.5625 -120.375 59.5625 C-120.045 76.0625 -119.715 92.5625 -119.375 109.5625 C-113.00380859 109.65337891 -113.00380859 109.65337891 -106.50390625 109.74609375 C-103.12591361 109.79702983 -99.74793934 109.84895135 -96.36997223 109.90154266 C-92.7993326 109.95686199 -89.22868602 110.01042793 -85.65795898 110.05981445 C-81.56484755 110.11650532 -77.4718939 110.18107318 -73.37890625 110.24609375 C-72.09351456 110.26280624 -70.80812286 110.27951874 -69.48377991 110.29673767 C-68.30263107 110.31668289 -67.12148224 110.33662811 -65.90454102 110.35717773 C-64.85863297 110.37272202 -63.81272491 110.3882663 -62.73512268 110.40428162 C-60.375 110.5625 -60.375 110.5625 -59.375 111.5625 C-59.25177242 113.34153357 -59.19710981 115.12536203 -59.16967773 116.90844727 C-59.14973251 118.0495546 -59.12978729 119.19066193 -59.10923767 120.36634827 C-59.08416893 122.22881447 -59.08416893 122.22881447 -59.05859375 124.12890625 C-59.03781265 125.39266586 -59.01703156 126.65642548 -58.99562073 127.95848083 C-58.94116286 131.32368633 -58.8909572 134.68890173 -58.84277344 138.05419922 C-58.79260241 141.48605901 -58.73689345 144.91782831 -58.68164062 148.34960938 C-58.57429809 155.08716761 -58.47255675 161.82479336 -58.375 168.5625 C-62.08922979 169.4312991 -65.45722309 169.658927 -69.2668457 169.58422852 C-70.42767166 169.56413223 -71.58849762 169.54403595 -72.78450012 169.52333069 C-74.02737289 169.49629562 -75.27024567 169.46926056 -76.55078125 169.44140625 C-77.83107712 169.41779526 -79.11137299 169.39418427 -80.4304657 169.36985779 C-83.82205694 169.30724943 -87.21348461 169.23811801 -90.60491943 169.16760254 C-94.07052191 169.09670806 -97.53623889 169.03195815 -101.00195312 168.96679688 C-107.79312808 168.8386615 -114.58398693 168.70031325 -121.375 168.5625 C-121.375 149.7525 -121.375 130.9425 -121.375 111.5625 C-140.185 111.5625 -158.995 111.5625 -178.375 111.5625 C-178.375 130.3725 -178.375 149.1825 -178.375 168.5625 C-196.855 168.5625 -215.335 168.5625 -234.375 168.5625 C-234.375 149.4225 -234.375 130.2825 -234.375 110.5625 C-215.895 110.5625 -197.415 110.5625 -178.375 110.5625 C-178.375 93.7325 -178.375 76.9025 -178.375 59.5625 C-159.565 59.5625 -140.755 59.5625 -121.375 59.5625 C-121.705 40.0925 -122.035 20.6225 -122.375 0.5625 C-81.5552942 -0.3967098 -40.82623324 -0.40328063 0 0 Z " fill="#2BC8AD" transform="translate(846.375,84.4375)"/>
<path d="M0 0 C34.98 0 69.96 0 106 0 C106 18.81 106 37.62 106 57 C87.52 57 69.04 57 50 57 C50 77.13 50 97.26 50 118 C32.18 118 14.36 118 -4 118 C-4.33 118.66 -4.66 119.32 -5 120 C-5 119.34 -5 118.68 -5 118 C-25.13 118 -45.26 118 -66 118 C-66.020625 108.30625 -66.04125 98.6125 -66.0625 88.625 C-66.071604 85.56299316 -66.08070801 82.50098633 -66.09008789 79.34619141 C-66.09300727 76.93131555 -66.09555577 74.51643921 -66.09765625 72.1015625 C-66.10277222 70.83787842 -66.10788818 69.57419434 -66.11315918 68.2722168 C-66.11328003 67.07459717 -66.11340088 65.87697754 -66.11352539 64.64306641 C-66.115746 63.59937897 -66.11796661 62.55569153 -66.12025452 61.4803772 C-66 59 -66 59 -65 57 C-44.87 57 -24.74 57 -4 57 C-3.67 39.18 -3.34 21.36 -3 3 C-2.34 3 -1.68 3 -1 3 C-0.67 2.01 -0.34 1.02 0 0 Z " fill="#2AC8AD" transform="translate(562,365)"/>
<path d="M0 0 C0.495 0.99 0.495 0.99 1 2 C-16.49 2 -33.98 2 -52 2 C-52 21.47 -52 40.94 -52 61 C-34.51 60.67 -17.02 60.34 1 60 C0.98839844 56.13667969 0.97679687 52.27335938 0.96484375 48.29296875 C0.95704962 44.55981529 0.95097488 40.82666273 0.94506836 37.09350586 C0.94003319 34.49486893 0.9332047 31.89623485 0.92456055 29.29760742 C0.91245938 25.56688741 0.90676359 21.83620478 0.90234375 18.10546875 C0.89718246 16.93976852 0.89202118 15.7740683 0.88670349 14.57304382 C0.88662796 13.49214981 0.88655243 12.4112558 0.88647461 11.29760742 C0.884254 10.34496506 0.88203339 9.39232269 0.87974548 8.41081238 C1 6 1 6 2 3 C20.48 3 38.96 3 58 3 C58 22.14 58 41.28 58 61 C39.19 61 20.38 61 1 61 C1 79.15 1 97.3 1 116 C-16.82 116 -34.64 116 -53 116 C-53 133.49 -53 150.98 -53 169 C-73.13 169 -93.26 169 -114 169 C-114 152.5 -114 136 -114 119 C-113.34 119 -112.68 119 -112 119 C-112 118.34 -112 117.68 -112 117 C-113.65 117 -115.3 117 -117 117 C-116.67 98.52 -116.34 80.04 -116 61 C-95.21 61 -74.42 61 -53 61 C-53 41.2 -53 21.4 -53 1 C-35.51 0.67 -18.02 0.34 0 0 Z " fill="#493515" transform="translate(265,649)"/>
<path d="M0 0 C37.95 0 75.9 0 115 0 C115 18.48 115 36.96 115 56 C97.51 56 80.02 56 62 56 C62 75.8 62 95.6 62 116 C41.54 116 21.08 116 0 116 C0 77.72 0 39.44 0 0 Z " fill="#07251F" transform="translate(150,366)"/>
<path d="M0 0 C9.384375 -0.020625 18.76875 -0.04125 28.4375 -0.0625 C31.40419678 -0.071604 34.37089355 -0.08070801 37.42749023 -0.09008789 C39.76285761 -0.0930068 42.09822549 -0.09555542 44.43359375 -0.09765625 C45.65921021 -0.10277222 46.88482666 -0.10788818 48.14758301 -0.11315918 C49.30471802 -0.11328003 50.46185303 -0.11340088 51.65405273 -0.11352539 C52.664431 -0.115746 53.67480927 -0.11796661 54.71580505 -0.12025452 C57 0 57 0 58 1 C58.09370624 2.77991924 58.11744271 4.56356739 58.11352539 6.34594727 C58.11340454 7.50308228 58.11328369 8.66021729 58.11315918 9.85241699 C58.10804321 11.07803345 58.10292725 12.3036499 58.09765625 13.56640625 C58.09664917 14.68591675 58.09564209 15.80542725 58.09460449 16.9588623 C58.0893535 21.16008522 58.07539239 25.36129359 58.0625 29.5625 C58.041875 38.946875 58.02125 48.33125 58 58 C39.19 57.67 20.38 57.34 1 57 C1 77.13 1 97.26 1 118 C-17.48 118 -35.96 118 -55 118 C-55 136.15 -55 154.3 -55 173 C-63.70375 173.020625 -72.4075 173.04125 -81.375 173.0625 C-84.12376465 173.071604 -86.8725293 173.08070801 -89.70458984 173.09008789 C-91.8733719 173.09300737 -94.0421545 173.09555586 -96.2109375 173.09765625 C-97.3450708 173.10277222 -98.4792041 173.10788818 -99.64770508 173.11315918 C-100.7235083 173.11328003 -101.79931152 173.11340088 -102.90771484 173.11352539 C-103.84481293 173.115746 -104.78191101 173.11796661 -105.74740601 173.12025452 C-108 173 -108 173 -110 172 C-110 154.18 -110 136.36 -110 118 C-92.18 118 -74.36 118 -56 118 C-56 97.87 -56 77.74 -56 57 C-37.52 57 -19.04 57 0 57 C0 38.19 0 19.38 0 0 Z " fill="#0D3E36" transform="translate(668,365)"/>
<path d="M0 0 C36.63 0 73.26 0 111 0 C111 19.14 111 38.28 111 58 C92.19 58 73.38 58 54 58 C54.03960902 74.4100505 54.03960902 74.4100505 54.09008789 90.82006836 C54.09300687 92.8683263 54.09555547 94.91658481 54.09765625 96.96484375 C54.10277222 98.03931763 54.10788818 99.1137915 54.11315918 100.2208252 C54.11334045 101.743349 54.11334045 101.743349 54.11352539 103.29663086 C54.115746 104.18265488 54.11796661 105.06867889 54.12025452 105.98155212 C54 108 54 108 53 109 C51.37325222 109.09340434 49.74245949 109.11745171 48.11303711 109.11352539 C47.07203354 109.11344986 46.03102997 109.11337433 44.95848083 109.11329651 C43.8262056 109.10813522 42.69393036 109.10297394 41.52734375 109.09765625 C40.37456436 109.0962413 39.22178497 109.09482635 38.03407288 109.09336853 C34.33518936 109.08775005 30.63636536 109.07519442 26.9375 109.0625 C24.43684983 109.05748738 21.93619871 109.05292406 19.43554688 109.04882812 C13.29034412 109.03777462 7.14517631 109.02101852 1 109 C-0.16963529 106.66072943 -0.12330589 105.30323352 -0.12025452 102.69735718 C-0.12163201 101.79617346 -0.12300951 100.89498974 -0.12442875 99.96649742 C-0.12083064 98.97127886 -0.11723253 97.9760603 -0.11352539 96.95068359 C-0.11364593 95.88983866 -0.11376646 94.82899372 -0.11389065 93.73600197 C-0.11314218 90.29012607 -0.10551689 86.84430376 -0.09765625 83.3984375 C-0.09618663 81.27579779 -0.09516604 79.15315772 -0.09460449 77.03051758 C-0.08935395 69.14533954 -0.07539284 61.26016925 -0.0625 53.375 C-0.041875 35.76125 -0.02125 18.1475 0 0 Z " fill="#33E9CA" transform="translate(787,86)"/>
<path d="M0 0 C8.559375 -0.020625 17.11875 -0.04125 25.9375 -0.0625 C28.64316162 -0.071604 31.34882324 -0.08070801 34.13647461 -0.09008789 C36.26676382 -0.09300685 38.39705358 -0.09555545 40.52734375 -0.09765625 C41.64500122 -0.10277222 42.76265869 -0.10788818 43.91418457 -0.11315918 C44.96980591 -0.11328003 46.02542725 -0.11340088 47.11303711 -0.11352539 C48.03459091 -0.115746 48.95614471 -0.11796661 49.90562439 -0.12025452 C52 0 52 0 53 1 C53.0953919 2.37876025 53.12188622 3.76236916 53.12025452 5.14442444 C53.12232076 6.48153898 53.12232076 6.48153898 53.12442875 7.84566593 C53.11903159 9.3298384 53.11903159 9.3298384 53.11352539 10.84399414 C53.11364593 11.89480636 53.11376646 12.94561857 53.11389065 14.02827358 C53.11314117 17.44725562 53.10551136 20.8661839 53.09765625 24.28515625 C53.09618694 26.38895644 53.09516616 28.49275699 53.09460449 30.59655762 C53.08935036 38.41854397 53.0753893 46.2405225 53.0625 54.0625 C53.041875 71.531875 53.02125 89.00125 53 107 C15.38 107 -22.24 107 -61 107 C-61 89.51 -61 72.02 -61 54 C-40.87 54 -20.74 54 0 54 C0 36.18 0 18.36 0 0 Z " fill="#07251F" transform="translate(558,711)"/>
<path d="M0 0 C54.45 0 108.9 0 165 0 C165 55.11 165 110.22 165 167 C139.755 167.495 139.755 167.495 114 168 C113.67 186.81 113.34 205.62 113 225 C84.785 225.495 84.785 225.495 56 226 C55.67 245.47 55.34 264.94 55 285 C46.29625 285.020625 37.5925 285.04125 28.625 285.0625 C25.87623535 285.071604 23.1274707 285.08070801 20.29541016 285.09008789 C18.1266281 285.09300737 15.9578455 285.09555586 13.7890625 285.09765625 C12.6549292 285.10277222 11.5207959 285.10788818 10.35229492 285.11315918 C9.2764917 285.11328003 8.20068848 285.11340088 7.09228516 285.11352539 C6.15518707 285.115746 5.21808899 285.11796661 4.25259399 285.12025452 C2 285 2 285 0 284 C0 264.53 0 245.06 0 225 C17.82 225 35.64 225 54 225 C54 205.86 54 186.72 54 167 C62.518125 166.835 71.03625 166.67 79.8125 166.5 C82.37620361 166.44779297 84.93990723 166.39558594 87.58129883 166.34179688 C112.73257337 165.88335984 137.82677329 166 163 166 C163 111.55 163 57.1 163 1 C109.54 1 56.08 1 1 1 C1 19.48 1 37.96 1 57 C0.67 57 0.34 57 0 57 C0 38.19 0 19.38 0 0 Z " fill="#0D3D35" transform="translate(787,28)"/>
<path d="M0 0 C37.95 0 75.9 0 115 0 C115 19.14 115 38.28 115 58 C77.05 58 39.1 58 0 58 C0 38.86 0 19.72 0 0 Z " fill="#072620" transform="translate(380,592)"/>
<path d="M0 0 C19.14 0 38.28 0 58 0 C58 19.14 58 38.28 58 58 C76.15 58 94.3 58 113 58 C113 77.47 113 96.94 113 117 C94.85 117 76.7 117 58 117 C57.505 88.29 57.505 88.29 57 59 C38.19 58.67 19.38 58.34 0 58 C0 38.86 0 19.72 0 0 Z " fill="#07251F" transform="translate(267,592)"/>
<path d="M0 0 C0.495 0.99 0.495 0.99 1 2 C-16.49 2 -33.98 2 -52 2 C-52 21.47 -52 40.94 -52 61 C-34.51 60.67 -17.02 60.34 1 60 C0.98839844 56.13667969 0.97679687 52.27335938 0.96484375 48.29296875 C0.95704962 44.55981529 0.95097488 40.82666273 0.94506836 37.09350586 C0.94003319 34.49486893 0.9332047 31.89623485 0.92456055 29.29760742 C0.91245938 25.56688741 0.90676359 21.83620478 0.90234375 18.10546875 C0.89718246 16.93976852 0.89202118 15.7740683 0.88670349 14.57304382 C0.88662796 13.49214981 0.88655243 12.4112558 0.88647461 11.29760742 C0.884254 10.34496506 0.88203339 9.39232269 0.87974548 8.41081238 C1 6 1 6 2 3 C20.48 3 38.96 3 58 3 C58 22.14 58 41.28 58 61 C39.19 61 20.38 61 1 61 C1 79.15 1 97.3 1 116 C-16.82 116 -34.64 116 -53 116 C-53 98.18 -53 80.36 -53 62 C-73.46 62 -93.92 62 -115 62 C-115 80.15 -115 98.3 -115 117 C-115.66 117 -116.32 117 -117 117 C-116.67 98.52 -116.34 80.04 -116 61 C-95.21 61 -74.42 61 -53 61 C-53 41.2 -53 21.4 -53 1 C-35.51 0.67 -18.02 0.34 0 0 Z " fill="#674D1D" transform="translate(265,649)"/>
<path d="M0 0 C0 0.33 0 0.66 0 1 C-18.15 1 -36.3 1 -55 1 C-55 36.64 -55 72.28 -55 109 C-74.47 109 -93.94 109 -114 109 C-114 73.03 -114 37.06 -114 0 C-75.90886499 -0.82211083 -38.08090686 -1.0064787 0 0 Z " fill="#208877" transform="translate(380,483)"/>
<path d="M0 0 C20.13 0 40.26 0 61 0 C62.25274723 2.50549445 62.12029624 4.19735632 62.11352539 7.00048828 C62.11341209 8.56188034 62.11341209 8.56188034 62.11329651 10.15481567 C62.10813522 11.28192963 62.10297394 12.40904358 62.09765625 13.5703125 C62.0962413 14.72167694 62.09482635 15.87304138 62.09336853 17.05929565 C62.08775716 20.74788986 62.0752027 24.43642405 62.0625 28.125 C62.05748647 30.62109288 62.05292331 33.1171867 62.04882812 35.61328125 C62.03778403 41.74220809 62.0210348 47.87109976 62 54 C62.66 54 63.32 54 64 54 C64 54.66 64 55.32 64 56 C32.32 55.505 32.32 55.505 0 55 C0 72.82 0 90.64 0 109 C-18.15 109 -36.3 109 -55 109 C-55 91.18 -55 73.36 -55 55 C-28.27 54.505 -28.27 54.505 -1 54 C-0.67 36.18 -0.34 18.36 0 0 Z " fill="#33EACA" transform="translate(496,483)"/>
<path d="M0 0 C37.95 0 75.9 0 115 0 C115 17.82 115 35.64 115 54 C77.05 54 39.1 54 0 54 C0 36.18 0 18.36 0 0 Z " fill="#07251F" transform="translate(381,710)"/>
<path d="M0 0 C17.16 0 34.32 0 52 0 C53 1 53 1 53.12304783 2.79410648 C53.12166514 3.97630599 53.12166514 3.97630599 53.12025452 5.18238831 C53.12162918 6.08407745 53.12300385 6.9857666 53.12442017 7.91477966 C53.11902725 9.41018028 53.11902725 9.41018028 53.11352539 10.93579102 C53.11367142 11.97956909 53.11381744 13.02334717 53.1139679 14.09875488 C53.11326826 17.56715943 53.10547353 21.03551103 53.09765625 24.50390625 C53.09579225 26.90144318 53.09436826 29.2989805 53.09336853 31.69651794 C53.08954194 38.02095584 53.07971046 44.34537094 53.06866455 50.6697998 C53.0566596 58.25051146 53.05204886 65.83123072 53.04621124 73.41194916 C53.03649878 84.94131532 53.01734319 96.47063141 53 108 C35.51 108 18.02 108 0 108 C0 72.36 0 36.72 0 0 Z " fill="#07251F" transform="translate(213,483)"/>
<path d="M0 0 C20.13 0 40.26 0 61 0 C61 20.13 61 40.26 61 61 C40.87 61 20.74 61 0 61 C0 40.87 0 20.74 0 0 Z " fill="#0D3D35" transform="translate(380,422)"/>
<path d="M0 0 C20.13 0 40.26 0 61 0 C61 19.8 61 39.6 61 60 C40.87 60 20.74 60 0 60 C0 40.2 0 20.4 0 0 Z " fill="#1F8877" transform="translate(380,650)"/>
<path d="M0 0 C20.13 0 40.26 0 61 0 C61 19.47 61 38.94 61 59 C40.87 59 20.74 59 0 59 C0 39.53 0 20.06 0 0 Z " fill="#07261F" transform="translate(496,651)"/>
<path d="M0 0 C20.13 0 40.26 0 61 0 C61 19.14 61 38.28 61 58 C40.87 58 20.74 58 0 58 C0 38.86 0 19.72 0 0 Z " fill="#0D3E35" transform="translate(726,86)"/>
<path d="M0 0 C19.14 0 38.28 0 58 0 C58 19.8 58 39.6 58 60 C38.86 60 19.72 60 0 60 C0 40.2 0 20.4 0 0 Z " fill="#07261F" transform="translate(266,423)"/>
<path d="M0 0 C17.49 0 34.98 0 53 0 C53 0.66 53 1.32 53 2 C54.32 2 55.64 2 57 2 C57 20.48 57 38.96 57 58 C78.12 58 99.24 58 121 58 C121 58.66 121 59.32 121 60 C111.33334796 60.03111129 101.66669339 60.05115402 92 60.0625 C91.27591572 60.06335602 90.55183144 60.06421204 89.80580521 60.06509399 C59.85614781 60.09631079 29.94568031 59.62549724 0 59 C0 39.53 0 20.06 0 0 Z " fill="#2CC8AD" transform="translate(668,254)"/>
<path d="M0 0 C18.81 0 37.62 0 57 0 C57 19.14 57 38.28 57 58 C38.19 58 19.38 58 0 58 C0 38.86 0 19.72 0 0 Z " fill="#2AC8AD" transform="translate(841,86)"/>
<path d="M0 0 C20.13 0 40.26 0 61 0 C61 17.82 61 35.64 61 54 C40.87 54 20.74 54 0 54 C0 36.18 0 18.36 0 0 Z " fill="#2AC7AD" transform="translate(380,538)"/>
<path d="M0 0 C8.05916691 -0.02094499 16.11823579 -0.04098314 24.17740631 -0.05175018 C27.93005024 -0.05704008 31.68267175 -0.06411391 35.43530273 -0.07543945 C39.04681687 -0.08627141 42.65830921 -0.09227749 46.26983833 -0.09487724 C47.65060329 -0.09673094 49.031367 -0.10035049 50.41212273 -0.10573006 C52.33975952 -0.11294447 54.26741807 -0.11340809 56.19506836 -0.11352539 C57.29427109 -0.115746 58.39347382 -0.11796661 59.52598572 -0.12025452 C62 0 62 0 63 1 C63.09333705 2.59610982 63.11745372 4.19633428 63.11352539 5.79516602 C63.11344986 6.81614883 63.11337433 7.83713165 63.11329651 8.88905334 C63.10813522 9.9994548 63.10297394 11.10985626 63.09765625 12.25390625 C63.0962413 13.38448959 63.09482635 14.51507294 63.09336853 15.67991638 C63.08775019 19.30747065 63.07519458 22.93496424 63.0625 26.5625 C63.05748736 29.01497307 63.05292405 31.4674471 63.04882812 33.91992188 C63.0377748 39.94663545 63.02101884 45.97331339 63 52 C55.08113286 52.02314476 47.1622798 52.040926 39.24338722 52.05181217 C35.56654289 52.05703632 31.88972166 52.0641255 28.21289062 52.07543945 C24.6662104 52.08628493 21.11955243 52.09228037 17.5728569 52.09487724 C16.21803817 52.09672849 14.86322069 52.10034338 13.50841141 52.10573006 C11.61450635 52.11296238 9.72057902 52.11340824 7.82666016 52.11352539 C6.20783432 52.11685631 6.20783432 52.11685631 4.55630493 52.12025452 C2 52 2 52 0 51 C0 34.17 0 17.34 0 0 Z " fill="#0F4038" transform="translate(725,313)"/>
<path d="M0 0 C19.14 0 38.28 0 58 0 C58 18.48 58 36.96 58 56 C38.86 56 19.72 56 0 56 C0 37.52 0 19.04 0 0 Z " fill="#1F8978" transform="translate(91,819)"/>
<path d="M0 0 C18.48 0 36.96 0 56 0 C56 19.14 56 38.28 56 58 C37.52 58 19.04 58 0 58 C0 38.86 0 19.72 0 0 Z " fill="#0D3D36" transform="translate(612,195)"/>
<path d="M0 0 C17.82 0 35.64 0 54 0 C54 19.8 54 39.6 54 60 C36.18 60 18.36 60 0 60 C0 40.2 0 20.4 0 0 Z " fill="#0F3F36" transform="translate(558,253)"/>
<path d="M0 0 C1.40897804 0.00333092 1.40897804 0.00333092 2.84642029 0.00672913 C4.4603064 0.0069104 4.4603064 0.0069104 6.10679626 0.00709534 C7.81567017 0.01476929 7.81567017 0.01476929 9.55906677 0.02259827 C11.1203833 0.02410889 11.1203833 0.02410889 12.71324158 0.02565002 C16.61889236 0.03090051 20.52452749 0.04486163 24.43016052 0.05775452 C37.51672302 0.08869202 37.51672302 0.08869202 50.86766052 0.12025452 C50.86766052 19.92025452 50.86766052 39.72025452 50.86766052 60.12025452 C33.04766052 60.12025452 15.22766052 60.12025452 -3.13233948 60.12025452 C-3.15328496 52.45187884 -3.17332306 44.78360621 -3.18408966 37.11522675 C-3.18937937 33.54454327 -3.19645286 29.97388337 -3.20777893 26.4032135 C-3.22068123 22.31019355 -3.22556854 18.21719872 -3.22999573 14.12416077 C-3.23515701 12.83876907 -3.2403183 11.55337738 -3.24563599 10.22903442 C-3.24571152 9.04788559 -3.24578705 7.86673676 -3.24586487 6.64979553 C-3.24808548 5.60388748 -3.25030609 4.55797943 -3.25259399 3.4803772 C-3.09790049 0.44435286 -3.02743795 0.17073411 0 0 Z " fill="#33E9CB" transform="translate(561.1323394775391,421.87974548339844)"/>
<path d="M0 0 C20.46 0 40.92 0 62 0 C62.495 1.485 62.495 1.485 63 3 C62.34 3 61.68 3 61 3 C61.00222061 3.61165512 61.00444122 4.22331024 61.00672913 4.85350037 C61.02878122 11.19570331 61.04390627 17.53789544 61.05493164 23.88012695 C61.05997341 26.24992312 61.06680665 28.61971615 61.07543945 30.98950195 C61.0875119 34.38754039 61.09322971 37.78553785 61.09765625 41.18359375 C61.10281754 42.25024765 61.10797882 43.31690155 61.11329651 44.4158783 C61.11337204 45.39681961 61.11344757 46.37776093 61.11352539 47.38842773 C61.115746 48.25668686 61.11796661 49.12494598 61.12025452 50.01951599 C61 52 61 52 60 53 C58.1281906 53.09386381 56.2528194 53.11743804 54.37866211 53.11352539 C53.17749252 53.11344986 51.97632294 53.11337433 50.73875427 53.11329651 C49.4314888 53.10813522 48.12422333 53.10297394 46.77734375 53.09765625 C45.43355868 53.09579198 44.08977293 53.09436812 42.74598694 53.09336853 C39.20317723 53.08954402 35.6604083 53.07971432 32.11761475 53.06866455 C28.50484784 53.05844899 24.89207416 53.0538159 21.27929688 53.04882812 C14.18616187 53.03862218 7.09313893 53.01905051 0 53 C0 35.51 0 18.02 0 0 Z " fill="#0D3E35" transform="translate(496,538)"/>
<path d="M0 0 C20.13 0 40.26 0 61 0 C61 17.49 61 34.98 61 53 C40.87 53 20.74 53 0 53 C0 36.5 0 20 0 3 C0.66 3 1.32 3 2 3 C2 2.34 2 1.68 2 1 C1.34 0.67 0.68 0.34 0 0 Z " fill="#674C1E" transform="translate(151,765)"/>
<path d="M0 0 C7.92890315 -0.02094515 15.85770665 -0.04098329 23.78661346 -0.05175018 C27.47860391 -0.05704002 31.17057155 -0.06411374 34.86254883 -0.07543945 C38.41570831 -0.08627162 41.96884563 -0.09227753 45.52202034 -0.09487724 C46.88045666 -0.0967309 48.23889171 -0.10035038 49.59731865 -0.10573006 C51.49382223 -0.11294475 53.39034793 -0.11340809 55.28686523 -0.11352539 C56.36830307 -0.115746 57.44974091 -0.11796661 58.56394958 -0.12025452 C61 0 61 0 62 1 C62.09333705 2.59610982 62.11745372 4.19633428 62.11352539 5.79516602 C62.11340454 6.83048462 62.11328369 7.86580322 62.11315918 8.93249512 C62.10804321 10.02856079 62.10292725 11.12462646 62.09765625 12.25390625 C62.09664917 13.25546753 62.09564209 14.25702881 62.09460449 15.28894043 C62.08935429 19.04680519 62.07539317 22.80465369 62.0625 26.5625 C62.041875 34.956875 62.02125 43.35125 62 52 C41.54 52 21.08 52 0 52 C0 34.84 0 17.68 0 0 Z " fill="#0D3E35" transform="translate(496,313)"/>
<path d="M0 0 C0.495 0.99 0.495 0.99 1 2 C-16.49 2 -33.98 2 -52 2 C-52 21.47 -52 40.94 -52 61 C-34.51 61 -17.02 61 1 61 C1 79.15 1 97.3 1 116 C-16.82 116 -34.64 116 -53 116 C-53 98.18 -53 80.36 -53 62 C-73.46 62 -93.92 62 -115 62 C-115 80.15 -115 98.3 -115 117 C-115.66 117 -116.32 117 -117 117 C-116.67 98.52 -116.34 80.04 -116 61 C-95.21 61 -74.42 61 -53 61 C-53 41.2 -53 21.4 -53 1 C-35.51 0.67 -18.02 0.34 0 0 Z " fill="#86672A" transform="translate(265,649)"/>
<path d="M0 0 C18.48 0 36.96 0 56 0 C56 18.81 56 37.62 56 57 C37.52 57 19.04 57 0 57 C0 38.19 0 19.38 0 0 Z " fill="#33EACA" transform="translate(612,365)"/>
<path d="M0 0 C18.15 0 36.3 0 55 0 C55 19.14 55 38.28 55 58 C36.85 58 18.7 58 0 58 C0 38.86 0 19.72 0 0 Z " fill="#208877" transform="translate(325,592)"/>
<path d="M0 0 C7.67211202 -0.02526605 15.3442134 -0.04283123 23.01635742 -0.05493164 C25.62866619 -0.05997377 28.24097211 -0.06680725 30.85327148 -0.07543945 C34.59880268 -0.08751036 38.34429672 -0.09322935 42.08984375 -0.09765625 C43.26586655 -0.10281754 44.44188934 -0.10797882 45.65354919 -0.11329651 C46.73459427 -0.11337204 47.81563934 -0.11344757 48.92944336 -0.11352539 C49.88652695 -0.115746 50.84361053 -0.11796661 51.82969666 -0.12025452 C54 0 54 0 55 1 C55.09365006 2.7492872 55.11744438 4.50236254 55.11352539 6.25415039 C55.11344986 7.37523697 55.11337433 8.49632355 55.11329651 9.65138245 C55.10813522 10.8711528 55.10297394 12.09092316 55.09765625 13.34765625 C55.0962413 14.58921982 55.09482635 15.83078339 55.09336853 17.10997009 C55.08870591 20.41605491 55.07971497 23.72207146 55.06866455 27.02813721 C55.05844827 30.3996115 55.05387045 33.77109283 55.04882812 37.14257812 C55.03777395 43.76173775 55.02101736 50.38086493 55 57 C47.32788798 57.02526605 39.6557866 57.04283123 31.98364258 57.05493164 C29.37133381 57.05997377 26.75902789 57.06680725 24.14672852 57.07543945 C20.40119732 57.08751036 16.65570328 57.09322935 12.91015625 57.09765625 C11.73413345 57.10281754 10.55811066 57.10797882 9.34645081 57.11329651 C8.26540573 57.11337204 7.18436066 57.11344757 6.07055664 57.11352539 C5.11347305 57.115746 4.15638947 57.11796661 3.17030334 57.12025452 C1 57 1 57 0 56 C-0.09365006 54.2507128 -0.11744438 52.49763746 -0.11352539 50.74584961 C-0.11344986 49.62476303 -0.11337433 48.50367645 -0.11329651 47.34861755 C-0.10813522 46.1288472 -0.10297394 44.90907684 -0.09765625 43.65234375 C-0.0962413 42.41078018 -0.09482635 41.16921661 -0.09336853 39.89002991 C-0.08870591 36.58394509 -0.07971497 33.27792854 -0.06866455 29.97186279 C-0.05844827 26.6003885 -0.05387045 23.22890717 -0.04882812 19.85742188 C-0.03777395 13.23826225 -0.02101736 6.61913507 0 0 Z " fill="#0E3D34" transform="translate(441,365)"/>
<path d="M0 0 C19.14 0 38.28 0 58 0 C58 17.82 58 35.64 58 54 C38.86 54 19.72 54 0 54 C0 36.18 0 18.36 0 0 Z " fill="#281D0A" transform="translate(266,710)"/>
<path d="M0 0 C17.49 0 34.98 0 53 0 C53 19.47 53 38.94 53 59 C35.51 59 18.02 59 0 59 C0 39.53 0 20.06 0 0 Z " fill="#0C3E36" transform="translate(787,253)"/>
<path d="M0 0 C2.44241333 -0.36076355 2.44241333 -0.36076355 5.55126953 -0.34057617 C6.71232208 -0.34034958 7.87337463 -0.34012299 9.0696106 -0.33988953 C10.32796722 -0.32440567 11.58632385 -0.30892181 12.8828125 -0.29296875 C14.16735321 -0.28872391 15.45189392 -0.28447906 16.77536011 -0.28010559 C20.19172641 -0.2686468 23.60771056 -0.23917143 27.02392578 -0.20599365 C30.50938751 -0.17531462 33.99491094 -0.16160494 37.48046875 -0.14648438 C44.32046957 -0.11430221 51.16021644 -0.06309376 58 0 C58.95162372 2.85487115 59.12163139 4.60454317 59.11352539 7.56323242 C59.11344986 8.48396042 59.11337433 9.40468842 59.11329651 10.35331726 C59.10813522 11.34402725 59.10297394 12.33473724 59.09765625 13.35546875 C59.0962413 14.37224197 59.09482635 15.3890152 59.09336853 16.43659973 C59.08776707 19.68692964 59.07521432 22.93719088 59.0625 26.1875 C59.05748519 28.38997296 59.05292225 30.59244701 59.04882812 32.79492188 C59.03779717 38.19663804 59.02105762 43.59831412 59 49 C58.34 49 57.68 49 57 49 C57 49.66 57 50.32 57 51 C37.53 51.33 18.06 51.66 -2 52 C-2.04125 43.976875 -2.0825 35.95375 -2.125 27.6875 C-2.14320801 25.15666748 -2.16141602 22.62583496 -2.18017578 20.01831055 C-2.18601608 18.01611544 -2.19111273 16.01391797 -2.1953125 14.01171875 C-2.20554443 12.9690686 -2.21577637 11.92641846 -2.22631836 10.85217285 C-2.22656006 9.85770142 -2.22680176 8.86322998 -2.22705078 7.83862305 C-2.231492 6.97480515 -2.23593323 6.11098724 -2.24050903 5.22099304 C-2 3 -2 3 0 0 Z " fill="#146355" transform="translate(499,712)"/>
<path d="M0 0 C0.66 0 1.32 0 2 0 C2 19.47 2 38.94 2 59 C2.66 59 3.32 59 4 59 C4 59.66 4 60.32 4 61 C21.16 61.33 38.32 61.66 56 62 C56.02290196 69.67215605 56.0428312 77.34419447 56.05493164 85.01635742 C56.05997377 87.62866619 56.06680725 90.24097211 56.07543945 92.85327148 C56.08751036 96.59880268 56.09322935 100.34429672 56.09765625 104.08984375 C56.10281754 105.26586655 56.10797882 106.44188934 56.11329651 107.65354919 C56.11337204 108.73459427 56.11344757 109.81563934 56.11352539 110.92944336 C56.115746 111.88652695 56.11796661 112.84361053 56.12025452 113.82969666 C56 116 56 116 55 117 C53.31198015 117.09353163 51.62004793 117.11744791 49.92944336 117.11352539 C48.84839828 117.11344986 47.76735321 117.11337433 46.65354919 117.11329651 C44.889515 117.10555458 44.889515 117.10555458 43.08984375 117.09765625 C41.89267227 117.0962413 40.69550079 117.09482635 39.46205139 117.09336853 C35.62050934 117.08774979 31.77902457 117.07519411 27.9375 117.0625 C25.34049563 117.05748741 22.74349035 117.05292409 20.14648438 117.04882812 C13.76430321 117.03777427 7.3821557 117.02101792 1 117 C0.3225378 87.18458372 -0.09953502 57.38494767 -0.0625 27.5625 C-0.06164398 26.86819633 -0.06078796 26.17389267 -0.05990601 25.4585495 C-0.04865334 16.97234137 -0.02878747 8.48616709 0 0 Z " fill="#2BC8AD" transform="translate(440,421)"/>
<path d="M0 0 C7.27758461 -0.02094604 14.55506063 -0.04098406 21.83264923 -0.05175018 C25.22137231 -0.05703969 28.61007056 -0.0641128 31.9987793 -0.07543945 C35.88329777 -0.08834267 39.76780597 -0.09322924 43.65234375 -0.09765625 C44.87211411 -0.10281754 46.09188446 -0.10797882 47.34861755 -0.11329651 C49.03024742 -0.11340981 49.03024742 -0.11340981 50.74584961 -0.11352539 C51.73846298 -0.115746 52.73107635 -0.11796661 53.75376892 -0.12025452 C56 0 56 0 57 1 C57.09326716 2.56547048 57.11745582 4.13512772 57.11352539 5.70336914 C57.11344986 6.70433121 57.11337433 7.70529327 57.11329651 8.73658752 C57.10813522 9.8251152 57.10297394 10.91364288 57.09765625 12.03515625 C57.0962413 13.14354355 57.09482635 14.25193085 57.09336853 15.39390564 C57.08775033 18.95013069 57.07519475 22.50629383 57.0625 26.0625 C57.05748734 28.46679597 57.05292403 30.87109292 57.04882812 33.27539062 C57.03777499 39.18361504 57.02101917 45.0918031 57 51 C57.66 51 58.32 51 59 51 C59 51.66 59 52.32 59 53 C29.795 52.505 29.795 52.505 0 52 C0 34.84 0 17.68 0 0 Z " fill="#32EACB" transform="translate(668,313)"/>
<path d="M0 0 C18.81 0 37.62 0 57 0 C57 16.83 57 33.66 57 51 C38.19 51 19.38 51 0 51 C0 34.17 0 17.34 0 0 Z " fill="#0D3D34" transform="translate(668,144)"/>
<path d="M0 0 C17.49 0 34.98 0 53 0 C53.020625 8.724375 53.04125 17.44875 53.0625 26.4375 C53.071604 29.19536865 53.08070801 31.9532373 53.09008789 34.79467773 C53.09300684 36.96598258 53.09555545 39.13728796 53.09765625 41.30859375 C53.10277222 42.44784302 53.10788818 43.58709229 53.11315918 44.76086426 C53.11334045 46.37475037 53.11334045 46.37475037 53.11352539 48.02124023 C53.115746 48.96055893 53.11796661 49.89987762 53.12025452 50.86766052 C53 53 53 53 52 54 C50.37325222 54.09340434 48.74245949 54.11745171 47.11303711 54.11352539 C46.05741577 54.11340454 45.00179443 54.11328369 43.91418457 54.11315918 C42.23769836 54.10548523 42.23769836 54.10548523 40.52734375 54.09765625 C39.50612427 54.09664917 38.48490479 54.09564209 37.43273926 54.09460449 C33.60098149 54.08935415 29.76923967 54.07539303 25.9375 54.0625 C17.378125 54.041875 8.81875 54.02125 0 54 C0 36.18 0 18.36 0 0 Z " fill="#0D3F35" transform="translate(558,483)"/>
<path d="M0 0 C17.49 0 34.98 0 53 0 C53 17.49 53 34.98 53 53 C35.51 53 18.02 53 0 53 C0 35.51 0 18.02 0 0 Z " fill="#271D0A" transform="translate(212,765)"/>
<path d="M0 0 C0.33 0 0.66 0 1 0 C1 18.81 1 37.62 1 57 C18.49 57 35.98 57 54 57 C54.020625 65.229375 54.04125 73.45875 54.0625 81.9375 C54.071604 84.53874756 54.08070801 87.13999512 54.09008789 89.82006836 C54.09300687 91.8683263 54.09555547 93.91658481 54.09765625 95.96484375 C54.10277222 97.03931763 54.10788818 98.1137915 54.11315918 99.2208252 C54.11334045 100.743349 54.11334045 100.743349 54.11352539 102.29663086 C54.115746 103.18265488 54.11796661 104.06867889 54.12025452 104.98155212 C54 107 54 107 53 108 C51.37325222 108.09340434 49.74245949 108.11745171 48.11303711 108.11352539 C47.07203354 108.11344986 46.03102997 108.11337433 44.95848083 108.11329651 C43.8262056 108.10813522 42.69393036 108.10297394 41.52734375 108.09765625 C40.37456436 108.0962413 39.22178497 108.09482635 38.03407288 108.09336853 C34.33518936 108.08775005 30.63636536 108.07519442 26.9375 108.0625 C24.43684983 108.05748738 21.93619871 108.05292406 19.43554688 108.04882812 C13.29034412 108.03777462 7.14517631 108.02101852 1 108 C-0.1650995 105.669801 -0.12332151 104.33000001 -0.12025452 101.73532104 C-0.12162918 100.84067139 -0.12300385 99.94602173 -0.12442017 99.02426147 C-0.12082489 98.04027374 -0.11722961 97.05628601 -0.11352539 96.04248047 C-0.11367142 95.00830994 -0.11381744 93.9741394 -0.1139679 92.90863037 C-0.11326924 89.47812834 -0.10547901 86.04768009 -0.09765625 82.6171875 C-0.0957919 80.24350006 -0.09436808 77.86981223 -0.09336853 75.49612427 C-0.08954466 69.23910465 -0.07971547 62.98210813 -0.06866455 56.72509766 C-0.05844764 50.3440787 -0.05387031 43.96305602 -0.04882812 37.58203125 C-0.0380931 25.05467763 -0.02120961 12.52734004 0 0 Z " fill="#2BC8AD" transform="translate(787,87)"/>
<path d="M0 0 C17.49 0 34.98 0 53 0 C53 16.83 53 33.66 53 51 C45.61267325 51.02290249 38.22546868 51.04283157 30.83813477 51.05493164 C28.32283105 51.05997363 25.80753028 51.06680703 23.29223633 51.07543945 C19.68570225 51.08751094 16.07920677 51.09322949 12.47265625 51.09765625 C10.77424339 51.10539818 10.77424339 51.10539818 9.04151917 51.11329651 C8.00051559 51.11337204 6.95951202 51.11344757 5.88696289 51.11352539 C4.50463219 51.11685631 4.50463219 51.11685631 3.09437561 51.12025452 C1 51 1 51 0 50 C-0.09326716 48.43452952 -0.11745582 46.86487228 -0.11352539 45.29663086 C-0.11340454 44.28161499 -0.11328369 43.26659912 -0.11315918 42.2208252 C-0.10804321 41.14635132 -0.10292725 40.07187744 -0.09765625 38.96484375 C-0.09664917 37.98294067 -0.09564209 37.0010376 -0.09460449 35.98937988 C-0.08935445 32.30540812 -0.07539332 28.62145294 -0.0625 24.9375 C-0.041875 16.708125 -0.02125 8.47875 0 0 Z " fill="#33EACA" transform="translate(559,314)"/>
<path d="M0 0 C0.33 0 0.66 0 1 0 C1 19.14 1 38.28 1 58 C19.71375942 57.96038881 19.71375942 57.96038881 38.42749023 57.90991211 C40.76285761 57.9069932 43.09822549 57.90444458 45.43359375 57.90234375 C46.65921021 57.89722778 47.88482666 57.89211182 49.14758301 57.88684082 C50.30471802 57.88671997 51.46185303 57.88659912 52.65405273 57.88647461 C53.664431 57.884254 54.67480927 57.88203339 55.71580505 57.87974548 C58 58 58 58 59 59 C59.09376053 60.81055025 59.1174411 62.62477201 59.11352539 64.43774414 C59.11344986 65.59887222 59.11337433 66.76000031 59.11329651 67.95631409 C59.10813522 69.219832 59.10297394 70.48334991 59.09765625 71.78515625 C59.09553383 73.71408974 59.09553383 73.71408974 59.09336853 75.68199158 C59.08954418 79.10643443 59.07971462 82.53083509 59.06866455 85.95526123 C59.05844864 89.44738178 59.05381582 92.93950933 59.04882812 96.43164062 C59.03862247 103.28779772 59.01905077 110.14383885 59 117 C77.15 117 95.3 117 114 117 C114 117.33 114 117.66 114 118 C96.18 118 78.36 118 60 118 C60 136.15 60 154.3 60 173 C57.36867601 174.31566199 55.4855848 174.08011071 52.54052734 174.02172852 C51.39949554 174.00163223 50.25846375 173.98153595 49.08285522 173.96083069 C47.84637238 173.93379562 46.60988953 173.90676056 45.3359375 173.87890625 C44.07359283 173.85529526 42.81124817 173.83168427 41.51065063 173.80735779 C38.15355005 173.74364001 34.79660042 173.67544406 31.43963623 173.60510254 C28.01451709 173.53442725 24.58928855 173.46954882 21.1640625 173.40429688 C14.44255709 173.2758215 7.72134899 173.13764577 1 173 C1 190.82 1 208.64 1 227 C-16.82 227 -34.64 227 -53 227 C-53 264.95 -53 302.9 -53 342 C-110.09 342 -167.18 342 -226 342 C-226 286.23 -226 230.46 -226 173 C-190.36 173 -154.72 173 -118 173 C-118 173.33 -118 173.66 -118 174 C-153.31 174 -188.62 174 -225 174 C-225 229.11 -225 284.22 -225 341 C-168.9 341 -112.8 341 -55 341 C-55 303.38 -55 265.76 -55 227 C-75.46 227 -95.92 227 -117 227 C-117 209.51 -117 192.02 -117 174 C-116.34 173.67 -115.68 173.34 -115 173 C-114.34 173.33 -113.68 173.66 -113 174 C-113 174.66 -113 175.32 -113 176 C-113.66 176 -114.32 176 -115 176 C-115 192.5 -115 209 -115 226 C-77.38 226 -39.76 226 -1 226 C-1 208.51 -1 191.02 -1 173 C0 172 0 172 2.32215881 171.87974548 C3.35030197 171.88196609 4.37844513 171.88418671 5.43774414 171.88647461 C6.59887222 171.88655014 7.76000031 171.88662567 8.95631409 171.88670349 C10.85159096 171.89444542 10.85159096 171.89444542 12.78515625 171.90234375 C14.71408974 171.90446617 14.71408974 171.90446617 16.68199158 171.90663147 C20.10643443 171.91045582 23.53083509 171.92028538 26.95526123 171.93133545 C30.44738189 171.94155136 33.93950934 171.94612947 37.43164062 171.95117188 C44.28777778 171.96190773 51.14388687 171.97898316 58 172 C57.98120789 171.17841904 57.98120789 171.17841904 57.96203613 170.34024048 C57.12865648 133.54444999 56.91022911 96.8060669 57 60 C38.52 60 20.04 60 1 60 C1.33 60.99 1.66 61.98 2 63 C1.34 63 0.68 63 0 63 C0 42.21 0 21.42 0 0 Z " fill="#3D4840" transform="translate(266,592)"/>
<path d="M0 0 C1.29816021 0.01281384 2.59632042 0.02562767 3.93381882 0.0388298 C20.16437672 0.20025527 36.39465391 0.37966248 52.625 0.5625 C52.625 20.0325 52.625 39.5025 52.625 59.5625 C52.295 59.5625 51.965 59.5625 51.625 59.5625 C51.625 40.4225 51.625 21.2825 51.625 1.5625 C-5.135 1.5625 -61.895 1.5625 -120.375 1.5625 C-120.045 37.2025 -119.715 72.8425 -119.375 109.5625 C-100.0031289 109.85189672 -100.0031289 109.85189672 -80.63110352 110.13061523 C-78.21369826 110.16871877 -75.7962987 110.20718623 -73.37890625 110.24609375 C-71.47570618 110.2708075 -71.47570618 110.2708075 -69.53405762 110.29602051 C-68.33631714 110.31620239 -67.13857666 110.33638428 -65.90454102 110.35717773 C-64.85863297 110.37272202 -63.81272491 110.3882663 -62.73512268 110.40428162 C-60.375 110.5625 -60.375 110.5625 -59.375 111.5625 C-59.31123296 113.06775914 -59.31787791 114.57608198 -59.35327148 116.08227539 C-59.37336777 117.04319595 -59.39346405 118.00411652 -59.41416931 118.99415588 C-59.44120438 120.038936 -59.46823944 121.08371613 -59.49609375 122.16015625 C-59.53151024 123.75614906 -59.53151024 123.75614906 -59.56764221 125.38438416 C-59.64449538 128.79805129 -59.7284261 132.21150379 -59.8125 135.625 C-59.86569902 137.93293204 -59.91843954 140.24087471 -59.97070312 142.54882812 C-60.10013964 148.22018621 -60.23539434 153.89138363 -60.375 159.5625 C-62.025 159.5625 -63.675 159.5625 -65.375 159.5625 C-66.96162647 156.38924706 -66.49588252 152.97466453 -66.47265625 149.4921875 C-66.47164917 148.78650635 -66.47064209 148.0808252 -66.46960449 147.35375977 C-66.46436828 144.71499001 -66.45040702 142.07624339 -66.4375 139.4375 C-66.416875 133.53875 -66.39625 127.64 -66.375 121.5625 C-82.215 121.5625 -98.055 121.5625 -114.375 121.5625 C-114.375 122.2225 -114.375 122.8825 -114.375 123.5625 C-115.365 123.8925 -116.355 124.2225 -117.375 124.5625 C-117.39481934 125.51092773 -117.41463867 126.45935547 -117.43505859 127.43652344 C-117.51325761 130.96282364 -117.59995366 134.48870361 -117.69238281 138.01464844 C-117.73061266 139.53930658 -117.765476 141.06405307 -117.796875 142.58886719 C-117.84265662 144.78352381 -117.90062766 146.9775754 -117.9609375 149.171875 C-117.97248871 149.8511908 -117.98403992 150.53050659 -117.99594116 151.23040771 C-118.11637101 155.11163049 -118.57923207 156.97096414 -120.375 160.5625 C-120.705 144.3925 -121.035 128.2225 -121.375 111.5625 C-140.185 111.5625 -158.995 111.5625 -178.375 111.5625 C-178.375 111.2325 -178.375 110.9025 -178.375 110.5625 C-159.565 110.5625 -140.755 110.5625 -121.375 110.5625 C-121.705 74.2625 -122.035 37.9625 -122.375 0.5625 C-81.5552942 -0.3967098 -40.82623324 -0.40328063 0 0 Z " fill="#29C6AB" transform="translate(846.375,84.4375)"/>
<path d="M0 0 C20.46 0 40.92 0 62 0 C62.33 19.47 62.66 38.94 63 59 C80.49 59.33 97.98 59.66 116 60 C116 95.97 116 131.94 116 169 C77.39 169 38.78 169 -1 169 C-1.33 151.51 -1.66 134.02 -2 116 C-39.95 115.67 -77.9 115.34 -117 115 C-117 96.85 -117 78.7 -117 60 C-116.67 60 -116.34 60 -116 60 C-116 77.82 -116 95.64 -116 114 C-78.05 114 -40.1 114 -1 114 C-1 96.18 -1 78.36 -1 60 C19.13 60 39.26 60 60 60 C60 40.53 60 21.06 60 1 C40.2 1 20.4 1 0 1 C0 0.67 0 0.34 0 0 Z M60 62 C58.19955451 62.07803759 56.39602053 62.08578611 54.59399414 62.06591797 C52.86198509 62.05128006 52.86198509 62.05128006 51.09498596 62.03634644 C49.20912025 62.01448776 49.20912025 62.01448776 47.28515625 61.9921875 C45.32798464 61.97915718 43.37081272 61.96614421 41.4136343 61.95417976 C36.56770676 61.92355245 31.72193457 61.88353505 26.8762207 61.82861328 C24.1618121 61.79829945 21.4475605 61.77587261 18.73301697 61.76223755 C16.16990552 61.74901085 13.60682415 61.72378002 11.04396057 61.6857605 C9.88613571 61.68230621 8.72831085 61.67885193 7.53540039 61.67529297 C6.51249405 61.66561493 5.48958771 61.65593689 4.4356842 61.64596558 C3.23002052 61.82121262 3.23002052 61.82121262 2 62 C-0.16189853 65.24284779 -0.24626755 66.10096221 -0.22705078 69.83862305 C-0.22680908 70.83309448 -0.22656738 71.82756592 -0.22631836 72.85217285 C-0.21608643 73.894823 -0.20585449 74.93747314 -0.1953125 76.01171875 C-0.19329834 76.97194946 -0.19128418 77.93218018 -0.18920898 78.92150879 C-0.1787409 82.51022108 -0.15081834 86.09886531 -0.125 89.6875 C-0.08375 97.710625 -0.0425 105.73375 0 114 C19.47 113.67 38.94 113.34 59 113 C59 112.34 59 111.68 59 111 C59.66 111 60.32 111 61 111 C61 112.32 61 113.64 61 115 C40.87 115 20.74 115 0 115 C0 132.49 0 149.98 0 168 C37.62 168 75.24 168 114 168 C114.020625 150.530625 114.04125 133.06125 114.0625 115.0625 C114.071604 109.53765869 114.08070801 104.01281738 114.09008789 98.32055664 C114.09343142 93.3868335 114.09343142 93.3868335 114.09544373 88.45310974 C114.09698369 86.24815164 114.10050967 84.0431944 114.10557556 81.83824158 C114.11284978 78.50681078 114.11390753 75.17543164 114.11352539 71.84399414 C114.1171235 70.85454583 114.12072161 69.86509752 114.12442875 68.84566593 C114.1223625 67.50855139 114.1223625 67.50855139 114.12025452 66.14442444 C114.12117631 65.36366578 114.1220981 64.58290712 114.12304783 63.77848911 C114.19382943 61.97495786 114.19382943 61.97495786 113 61 C111.37872577 60.90138402 109.75317632 60.87201233 108.12890625 60.87060547 C106.57224243 60.86587723 106.57224243 60.86587723 104.98413086 60.86105347 C103.85499268 60.8630777 102.72585449 60.86510193 101.5625 60.8671875 C100.41209229 60.86623077 99.26168457 60.86527405 98.07641602 60.86428833 C95.63850856 60.86360631 93.2005993 60.8654621 90.76269531 60.86962891 C87.01623482 60.87497683 83.26989423 60.86968461 79.5234375 60.86328125 C77.16145807 60.86394203 74.79947871 60.86522318 72.4375 60.8671875 C70.74379272 60.86415115 70.74379272 60.86415115 69.01586914 60.86105347 C67.97809326 60.86420563 66.94031738 60.86735779 65.87109375 60.87060547 C64.95255615 60.87140106 64.03401855 60.87219666 63.08764648 60.87301636 C61.01121878 60.76782421 61.01121878 60.76782421 60 62 Z " fill="#30534A" transform="translate(497,650)"/>
<path d="M0 0 C54.45 0 108.9 0 165 0 C165 55.11 165 110.22 165 167 C139.755 167.495 139.755 167.495 114 168 C113.67 186.81 113.34 205.62 113 225 C84.785 225.495 84.785 225.495 56 226 C55.67 245.47 55.34 264.94 55 285 C37.51 285 20.02 285 2 285 C2 284.67 2 284.34 2 284 C18.83 284 35.66 284 53 284 C52.98839844 279.75253906 52.97679687 275.50507813 52.96484375 271.12890625 C52.95841682 267.75092854 52.95299259 264.37295256 52.94824982 260.99497223 C52.9429601 257.42428875 52.93588661 253.85362885 52.92456055 250.28295898 C52.91165824 246.18993903 52.90677094 242.0969442 52.90234375 238.00390625 C52.89718246 236.71851456 52.89202118 235.43312286 52.88670349 234.10877991 C52.88662796 232.92763107 52.88655243 231.74648224 52.88647461 230.52954102 C52.884254 229.48363297 52.88203339 228.43772491 52.87974548 227.36012268 C53 225 53 225 54 224 C55.77991924 223.90629376 57.56356739 223.88255729 59.34594727 223.88647461 C61.05760826 223.88658791 61.05760826 223.88658791 62.80384827 223.88670349 C64.0454924 223.89186478 65.28713654 223.89702606 66.56640625 223.90234375 C68.46204567 223.90446617 68.46204567 223.90446617 70.39598083 223.90663147 C73.76124889 223.91129418 77.1264499 223.9202852 80.49169922 223.93133545 C83.9234967 223.94155154 87.35530109 223.94612951 90.78710938 223.95117188 C97.52475824 223.9622262 104.26237525 223.9789829 111 224 C110.99777939 223.28812027 110.99555878 222.57624054 110.99327087 221.8427887 C110.97326747 215.14725765 110.95802562 208.45173489 110.94818783 201.75618076 C110.94296018 198.31359652 110.93586469 194.87103688 110.92456055 191.4284668 C110.91165765 187.47444957 110.90677082 183.52044244 110.90234375 179.56640625 C110.89718246 178.32476212 110.89202118 177.08311798 110.88670349 175.80384827 C110.88662796 174.66274094 110.88655243 173.52163361 110.88647461 172.34594727 C110.884254 171.335569 110.88203339 170.32519073 110.87974548 169.28419495 C111 167 111 167 112 166 C128.83 166 145.66 166 163 166 C163 111.55 163 57.1 163 1 C109.54 1 56.08 1 1 1 C1 19.48 1 37.96 1 57 C0.67 57 0.34 57 0 57 C0 38.19 0 19.38 0 0 Z " fill="#4B6460" transform="translate(787,28)"/>
<path d="M0 0 C0.66 0 1.32 0 2 0 C2 16.83 2 33.66 2 51 C-18.46 51 -38.92 51 -60 51 C-59.63137848 70.04295646 -59.63137848 70.04295646 -59.25170898 89.08569336 C-59.20776776 91.46206941 -59.16420308 93.83845246 -59.12109375 96.21484375 C-59.09438599 97.462052 -59.06767822 98.70926025 -59.04016113 99.9942627 C-59.00952576 101.76041931 -59.00952576 101.76041931 -58.97827148 103.56225586 C-58.95828598 104.59039902 -58.93830048 105.61854218 -58.91770935 106.67784119 C-59 109 -59 109 -60 110 C-60.12337174 111.84031989 -60.17791308 113.68529411 -60.20532227 115.52954102 C-60.22526749 116.71068985 -60.24521271 117.89183868 -60.26576233 119.10877991 C-60.29083107 121.03686745 -60.29083107 121.03686745 -60.31640625 123.00390625 C-60.33718735 124.31205795 -60.35796844 125.62020966 -60.37937927 126.96800232 C-60.434663 130.45155447 -60.48404431 133.9351666 -60.53222656 137.41882324 C-60.58239574 140.9713272 -60.63805191 144.52374481 -60.69335938 148.07617188 C-60.8015393 155.05071555 -60.9005127 162.02530514 -61 169 C-79.15 169 -97.3 169 -116 169 C-116 167.02 -116 165.04 -116 163 C-115.67 163 -115.34 163 -115 163 C-115 164.65 -115 166.3 -115 168 C-114.43645813 167.67468292 -113.87291626 167.34936584 -113.29229736 167.01419067 C-110.75078625 165.88973932 -109.08814562 165.75775744 -106.32324219 165.77294922 C-105.40258972 165.77310028 -104.48193726 165.77325134 -103.53338623 165.77340698 C-102.54783752 165.78372955 -101.56228882 165.79405212 -100.546875 165.8046875 C-99.02383759 165.80893234 -99.02383759 165.80893234 -97.47003174 165.81326294 C-94.22990084 165.82444999 -90.99004724 165.84955209 -87.75 165.875 C-85.55208733 165.8850317 -83.35417032 165.89415722 -81.15625 165.90234375 C-75.77073886 165.92438449 -70.38538924 165.95784749 -65 166 C-65 165.01 -65 164.02 -65 163 C-64.34 163 -63.68 163 -63 163 C-63.00222061 162.39500671 -63.00444122 161.79001343 -63.00672913 161.16668701 C-63.0288443 154.87268667 -63.04393271 148.57869735 -63.05493164 142.28466797 C-63.05996189 139.93537955 -63.0667868 137.58609427 -63.07543945 135.23681641 C-63.08756218 131.86099474 -63.0932414 128.48521445 -63.09765625 125.109375 C-63.10281754 124.05820496 -63.10797882 123.00703491 -63.11329651 121.92401123 C-63.11337204 120.94329651 -63.11344757 119.96258179 -63.11352539 118.95214844 C-63.115746 118.09055115 -63.11796661 117.22895386 -63.12025452 116.34124756 C-63.00477013 114.09287013 -62.62859079 112.15584672 -62 110 C-62.66 110 -63.32 110 -64 110 C-64 110.66 -64 111.32 -64 112 C-70.9234133 112.02531927 -77.84681469 112.04285389 -84.77026367 112.05493164 C-87.126388 112.05996575 -89.4825092 112.06679346 -91.83862305 112.07543945 C-95.2218503 112.0875453 -98.60503632 112.09323749 -101.98828125 112.09765625 C-103.57277824 112.10539818 -103.57277824 112.10539818 -105.18928528 112.11329651 C-106.17007553 112.11337204 -107.15086578 112.11344757 -108.16137695 112.11352539 C-109.45710381 112.11685631 -109.45710381 112.11685631 -110.77900696 112.12025452 C-113 112 -113 112 -116 111 C-116 110.34 -116 109.68 -116 109 C-98.18 109 -80.36 109 -62 109 C-62.01740234 102.73708984 -62.01740234 102.73708984 -62.03515625 96.34765625 C-62.04158321 93.02702616 -62.04700743 89.70639783 -62.05175018 86.38576508 C-62.05703983 82.87573507 -62.0641132 79.36572905 -62.07543945 75.85571289 C-62.08834206 71.83219159 -62.09322912 67.80869586 -62.09765625 63.78515625 C-62.10539818 61.88987938 -62.10539818 61.88987938 -62.11329651 59.95631409 C-62.11337204 58.795186 -62.11344757 57.63405792 -62.11352539 56.43774414 C-62.115746 55.40960098 -62.11796661 54.38145782 -62.12025452 53.32215881 C-62 51 -62 51 -61 50 C-59.12903889 49.87655973 -57.25349072 49.82207606 -55.37866211 49.79467773 C-53.57690773 49.7647599 -53.57690773 49.7647599 -51.73875427 49.73423767 C-50.4314888 49.71752518 -49.12422333 49.70081268 -47.77734375 49.68359375 C-46.43355153 49.66303042 -45.08976588 49.64203412 -43.74598694 49.62062073 C-40.20325013 49.56533581 -36.66045433 49.51595502 -33.11761475 49.46777344 C-29.5047886 49.41760513 -25.89204739 49.36194852 -22.27929688 49.30664062 C-15.18626253 49.19845909 -8.09318305 49.0994866 -1 49 C-0.67 32.83 -0.34 16.66 0 0 Z " fill="#196255" transform="translate(557,541)"/>
<path d="M0 0 C0.33 0 0.66 0 1 0 C1 17.82 1 35.64 1 54 C9.064375 53.979375 17.12875 53.95875 25.4375 53.9375 C54.96789434 53.90130105 84.4762549 54.37282208 114 55 C114 55.33 114 55.66 114 56 C95.52 56 77.04 56 58 56 C58 74.48 58 92.96 58 112 C77.47 112 96.94 112 117 112 C117 93.52 117 75.04 117 56 C116.34 55.67 115.68 55.34 115 55 C116.32 55.33 117.64 55.66 119 56 C119 75.14 119 94.28 119 114 C98.54 114 78.08 114 57 114 C57 95.52 57 77.04 57 58 C55.68 58 54.36 58 53 58 C53 57.34 53 56.68 53 56 C17.69 56 -17.62 56 -54 56 C-54.33 75.47 -54.66 94.94 -55 115 C-55.33 115 -55.66 115 -56 115 C-56 95.2 -56 75.4 -56 55 C-37.52 55 -19.04 55 0 55 C0 36.85 0 18.7 0 0 Z " fill="#3DE3C4" transform="translate(668,198)"/>
<path d="M0 0 C1.29816021 0.01281384 2.59632042 0.02562767 3.93381882 0.0388298 C20.16437672 0.20025527 36.39465391 0.37966248 52.625 0.5625 C52.625 20.0325 52.625 39.5025 52.625 59.5625 C52.295 59.5625 51.965 59.5625 51.625 59.5625 C51.625 40.4225 51.625 21.2825 51.625 1.5625 C-5.135 1.5625 -61.895 1.5625 -120.375 1.5625 C-120.045 37.2025 -119.715 72.8425 -119.375 109.5625 C-90.17 110.0575 -90.17 110.0575 -60.375 110.5625 C-60.375 110.8925 -60.375 111.2225 -60.375 111.5625 C-78.855 111.5625 -97.335 111.5625 -116.375 111.5625 C-115.385 113.0475 -115.385 113.0475 -114.375 114.5625 C-114.1796875 116.82421875 -114.1796875 116.82421875 -114.25 119.25 C-114.26804687 120.05824219 -114.28609375 120.86648437 -114.3046875 121.69921875 C-114.32789063 122.31410156 -114.35109375 122.92898437 -114.375 123.5625 C-115.365 123.8925 -116.355 124.2225 -117.375 124.5625 C-117.39481934 125.51092773 -117.41463867 126.45935547 -117.43505859 127.43652344 C-117.51325761 130.96282364 -117.59995366 134.48870361 -117.69238281 138.01464844 C-117.73061266 139.53930658 -117.765476 141.06405307 -117.796875 142.58886719 C-117.84265662 144.78352381 -117.90062766 146.9775754 -117.9609375 149.171875 C-117.97248871 149.8511908 -117.98403992 150.53050659 -117.99594116 151.23040771 C-118.11637101 155.11163049 -118.57923207 156.97096414 -120.375 160.5625 C-120.705 144.3925 -121.035 128.2225 -121.375 111.5625 C-140.185 111.5625 -158.995 111.5625 -178.375 111.5625 C-178.375 111.2325 -178.375 110.9025 -178.375 110.5625 C-159.565 110.5625 -140.755 110.5625 -121.375 110.5625 C-121.705 74.2625 -122.035 37.9625 -122.375 0.5625 C-81.5552942 -0.3967098 -40.82623324 -0.40328063 0 0 Z " fill="#48B5A1" transform="translate(846.375,84.4375)"/>
<path d="M0 0 C18.81 0 37.62 0 57 0 C57 0.99 57 1.98 57 3 C56.34 3.33 55.68 3.66 55 4 C54.67 17.53 54.34 31.06 54 45 C53.67 45 53.34 45 53 45 C53 34.44 53 23.88 53 13 C52.34 13 51.68 13 51 13 C51 12.34 51 11.68 51 11 C35.16 11 19.32 11 3 11 C3 9.02 3 7.04 3 5 C18.84 5 34.68 5 51 5 C51 4.34 51 3.68 51 3 C34.5 3 18 3 1 3 C1 20.82 1 38.64 1 57 C0.67 57 0.34 57 0 57 C0 38.19 0 19.38 0 0 Z " fill="#0A463C" transform="translate(841,195)"/>
<path d="M0 0 C0.99 0.495 0.99 0.495 2 1 C2 19.81 2 38.62 2 58 C-16.81 57.67 -35.62 57.34 -55 57 C-55 77.13 -55 97.26 -55 118 C-73.48 118 -91.96 118 -111 118 C-111 136.15 -111 154.3 -111 173 C-128.49 173 -145.98 173 -164 173 C-164 172.67 -164 172.34 -164 172 C-147.5 171.67 -131 171.34 -114 171 C-113.90912109 165.27849609 -113.90912109 165.27849609 -113.81640625 159.44140625 C-113.75467378 155.76454571 -113.69126252 152.08771772 -113.62768555 148.41088867 C-113.58425934 145.84711579 -113.54259015 143.28331254 -113.50268555 140.71948242 C-113.44516853 137.04336372 -113.38142137 133.36739901 -113.31640625 129.69140625 C-113.29969376 128.53725723 -113.28298126 127.38310822 -113.26576233 126.19398499 C-113.24581711 125.13296066 -113.22587189 124.07193634 -113.20532227 122.97875977 C-113.18977798 122.03944107 -113.1742337 121.10012238 -113.15821838 120.13233948 C-113 118 -113 118 -112 117 C-110.28134591 116.9064081 -108.55884256 116.88255389 -106.83764648 116.88647461 C-105.73658066 116.88655014 -104.63551483 116.88662567 -103.50108337 116.88670349 C-102.3031868 116.89186478 -101.10529022 116.89702606 -99.87109375 116.90234375 C-98.65172623 116.9037587 -97.4323587 116.90517365 -96.17604065 116.90663147 C-92.2631693 116.91225033 -88.35035419 116.92480604 -84.4375 116.9375 C-81.79231853 116.94251257 -79.14713617 116.9470759 -76.50195312 116.95117188 C-70.00128274 116.96222589 -63.50064539 116.97898236 -57 117 C-57.00222061 116.25053604 -57.00444122 115.50107208 -57.00672913 114.72889709 C-57.02673179 107.68017709 -57.041974 100.63146685 -57.05181217 93.58272648 C-57.05704002 89.9585404 -57.06413587 86.3343777 -57.07543945 82.71020508 C-57.08627184 79.21540025 -57.09227758 75.72061796 -57.09487724 72.22579765 C-57.09763551 70.23760611 -57.10544688 68.24942369 -57.11329651 66.26124573 C-57.11337204 65.06007614 -57.11344757 63.85890656 -57.11352539 62.62133789 C-57.115746 61.55766495 -57.11796661 60.493992 -57.12025452 59.39808655 C-57 57 -57 57 -56 56 C-54.2507128 55.90634994 -52.49763746 55.88255562 -50.74584961 55.88647461 C-49.60901733 55.88659546 -48.47218506 55.88671631 -47.30090332 55.88684082 C-45.49486633 55.89451477 -45.49486633 55.89451477 -43.65234375 55.90234375 C-42.00256531 55.90385437 -42.00256531 55.90385437 -40.31945801 55.90539551 C-36.19212814 55.91064638 -32.06481307 55.92460749 -27.9375 55.9375 C-18.718125 55.958125 -9.49875 55.97875 0 56 C0 37.52 0 19.04 0 0 Z " fill="#3E605C" transform="translate(724,365)"/>
<path d="M0 0 C18.81 0 37.62 0 57 0 C57 16.83 57 33.66 57 51 C38.19 51 19.38 51 0 51 C0 34.17 0 17.34 0 0 Z M1 1 C1.33 2.65 1.66 4.3 2 6 C2.99 5.67 3.98 5.34 5 5 C6.33120886 8.99362659 6.10296769 12.81197315 6.0625 16.97265625 C6.05871338 17.85150986 6.05492676 18.73036346 6.05102539 19.635849 C6.03880132 22.44478222 6.02016809 25.25361324 6 28.0625 C5.97348911 31.76171592 5.95345603 35.46088146 5.9375 39.16015625 C5.92920166 40.01537369 5.92090332 40.87059113 5.91235352 41.75172424 C5.76725564 46.00992308 5.76725564 46.00992308 7 50 C22.84 50 38.68 50 55 50 C56.19791173 47.60417654 56.1206744 46.13222462 56.11352539 43.45849609 C56.11334412 42.02751587 56.11334412 42.02751587 56.11315918 40.56762695 C56.10804321 39.56304443 56.10292725 38.55846191 56.09765625 37.5234375 C56.09664917 36.60151611 56.09564209 35.67959473 56.09460449 34.72973633 C56.08936322 31.27814494 56.075402 27.82657125 56.0625 24.375 C56.041875 16.66125 56.02125 8.9475 56 1 C37.85 1 19.7 1 1 1 Z " fill="#174C43" transform="translate(668,144)"/>
<path d="M0 0 C7.92890315 -0.02094515 15.85770665 -0.04098329 23.78661346 -0.05175018 C27.47860391 -0.05704002 31.17057155 -0.06411374 34.86254883 -0.07543945 C38.41570831 -0.08627162 41.96884563 -0.09227753 45.52202034 -0.09487724 C46.88045666 -0.0967309 48.23889171 -0.10035038 49.59731865 -0.10573006 C51.49382223 -0.11294475 53.39034793 -0.11340809 55.28686523 -0.11352539 C56.36830307 -0.115746 57.44974091 -0.11796661 58.56394958 -0.12025452 C61 0 61 0 62 1 C62.04080783 2.99958364 62.04254356 5.00045254 62 7 C54.63723408 7.0463682 47.27449971 7.08189196 39.91161728 7.10362434 C36.49262072 7.11405552 33.07372416 7.12820243 29.65478516 7.15087891 C25.722994 7.17679333 21.79124315 7.18647832 17.859375 7.1953125 C16.02013458 7.21079636 16.02013458 7.21079636 14.14373779 7.22659302 C13.00285706 7.22674408 11.86197632 7.22689514 10.68652344 7.22705078 C9.18094879 7.23371262 9.18094879 7.23371262 7.6449585 7.24050903 C5 7 5 7 1 5 C1 20.51 1 36.02 1 52 C0.67 52 0.34 52 0 52 C0 34.84 0 17.68 0 0 Z " fill="#2D534E" transform="translate(496,313)"/>
<path d="M0 0 C0.33 0 0.66 0 1 0 C1 15.84 1 31.68 1 48 C1.66 48 2.32 48 3 48 C3 48.66 3 49.32 3 50 C20.49 49.67 37.98 49.34 56 49 C56.33 32.83 56.66 16.66 57 0 C57.33 0 57.66 0 58 0 C58 16.83 58 33.66 58 51 C38.86 51 19.72 51 0 51 C0 70.14 0 89.28 0 109 C-17.49 109 -34.98 109 -53 109 C-53 108.67 -53 108.34 -53 108 C-27.755 107.505 -27.755 107.505 -2 107 C-1.67 89.18 -1.34 71.36 -1 53 C-8.8375 52.95875 -16.675 52.9175 -24.75 52.875 C-27.21952148 52.85679199 -29.68904297 52.83858398 -32.23339844 52.81982422 C-34.19205508 52.81398267 -36.15071415 52.80888631 -38.109375 52.8046875 C-39.12531738 52.79445557 -40.14125977 52.78422363 -41.18798828 52.77368164 C-42.16203613 52.77343994 -43.13608398 52.77319824 -44.13964844 52.77294922 C-45.40539703 52.76628738 -45.40539703 52.76628738 -46.69671631 52.75949097 C-49.20541467 53.02144941 -50.83328958 53.74075696 -53 55 C-53.66 53.68 -54.32 52.36 -55 51 C-54.34 50.34 -53.68 49.68 -53 49 C-53 49.66 -53 50.32 -53 51 C-35.84 50.67 -18.68 50.34 -1 50 C-0.67 33.5 -0.34 17 0 0 Z " fill="#4FDCC3" transform="translate(841,144)"/>
<path d="M0 0 C1.23475571 -0.00315216 2.46951141 -0.00630432 3.74168396 -0.009552 C5.10000646 -0.00776202 6.45832864 -0.00571102 7.81665039 -0.00341797 C9.2004854 -0.00409113 10.5843203 -0.00506126 11.96815491 -0.00631714 C14.87266156 -0.00779403 17.77713753 -0.00564017 20.68164062 -0.00097656 C24.4087745 0.00471543 28.13583628 0.00144505 31.86296749 -0.00454903 C34.72221929 -0.0081594 37.58145395 -0.00701376 40.44070625 -0.00442123 C41.81505911 -0.00375301 43.18941352 -0.00457675 44.56376457 -0.00690079 C46.48391567 -0.00943448 48.4040722 -0.00488939 50.32421875 0 C51.96516762 0.00119339 51.96516762 0.00119339 53.63926697 0.00241089 C56.22680664 0.12939453 56.22680664 0.12939453 58.22680664 1.12939453 C58.22680664 1.78939453 58.22680664 2.44939453 58.22680664 3.12939453 C26.54680664 2.63439453 26.54680664 2.63439453 -5.77319336 2.12939453 C-5.77319336 4.10939453 -5.77319336 6.08939453 -5.77319336 8.12939453 C-6.43319336 6.80939453 -7.09319336 5.48939453 -7.77319336 4.12939453 C-24.60319336 4.12939453 -41.43319336 4.12939453 -58.77319336 4.12939453 C-58.44319336 5.44939453 -58.11319336 6.76939453 -57.77319336 8.12939453 C-58.43319336 8.12939453 -59.09319336 8.12939453 -59.77319336 8.12939453 C-59.77319336 23.96939453 -59.77319336 39.80939453 -59.77319336 56.12939453 C-60.10319336 56.12939453 -60.43319336 56.12939453 -60.77319336 56.12939453 C-60.77319336 38.30939453 -60.77319336 20.48939453 -60.77319336 2.12939453 C-33.83569336 1.69189453 -33.83569336 1.69189453 -25.3203125 1.5612793 C-23.10798481 1.52317516 -20.89566333 1.48470765 -18.68334961 1.44580078 C-17.52250854 1.42932495 -16.36166748 1.41284912 -15.16564941 1.39587402 C-13.5213092 1.3656012 -13.5213092 1.3656012 -11.84375 1.3347168 C-10.88666641 1.31917252 -9.92958282 1.30362823 -8.9434967 1.28761292 C-5.74576604 1.05449353 -3.6276642 0.00264016 0 0 Z " fill="#45E2C6" transform="translate(501.773193359375,535.87060546875)"/>
<path d="M0 0 C20.13 0 40.26 0 61 0 C61 0.33 61 0.66 61 1 C41.2 1 21.4 1 1 1 C1 20.47 1 39.94 1 60 C20.47 60 39.94 60 60 60 C59.67 43.83 59.34 27.66 59 11 C58.67 26.51 58.34 42.02 58 58 C57.67 58 57.34 58 57 58 C57 40.84 57 23.68 57 6 C57.99 6 58.98 6 60 6 C60.33 5.01 60.66 4.02 61 3 C61 22.14 61 41.28 61 61 C40.87 61 20.74 61 0 61 C0 40.87 0 20.74 0 0 Z " fill="#1D574C" transform="translate(380,422)"/>
<path d="M0 0 C0.33 0 0.66 0 1 0 C1.01030746 0.62196259 1.02061493 1.24392517 1.03123474 1.88473511 C1.13916535 8.34074709 1.25377404 14.79661569 1.37231445 21.25244141 C1.4157065 23.66386931 1.45737837 26.07532879 1.49731445 28.48681641 C1.55491369 31.94703706 1.61863779 35.40709812 1.68359375 38.8671875 C1.70030624 39.95055389 1.71701874 41.03392029 1.73423767 42.15011597 C1.7641555 43.65144577 1.7641555 43.65144577 1.79467773 45.18310547 C1.81799416 46.50881058 1.81799416 46.50881058 1.84178162 47.86129761 C1.86765001 50.0519722 1.86765001 50.0519722 3 52 C3.33 35.5 3.66 19 4 2 C4.66 2 5.32 2 6 2 C6 19.82 6 37.64 6 56 C4.35 56 2.7 56 1 56 C1 56.66 1 57.32 1 58 C-16.82 58 -34.64 58 -53 58 C-53.33 58.66 -53.66 59.32 -54 60 C-54 58.68 -54 57.36 -54 56 C-36.18 56 -18.36 56 0 56 C0 37.52 0 19.04 0 0 Z " fill="#3EE1C5" transform="translate(496,366)"/>
<path d="M0 0 C18.15 0.33 36.3 0.66 55 1 C55 1.33 55 1.66 55 2 C37.51 2 20.02 2 2 2 C2.33 18.5 2.66 35 3 52 C3.66 52.33 4.32 52.66 5 53 C4.67 69.83 4.34 86.66 4 104 C3.01 104 2.02 104 1 104 C1 88.16 1 72.32 1 56 C0.34 56 -0.32 56 -1 56 C-1 55.34 -1 54.68 -1 54 C-21.13 54 -41.26 54 -62 54 C-61.67 53.34 -61.34 52.68 -61 52 C-40.54 52.33 -20.08 52.66 1 53 C0.67 35.51 0.34 18.02 0 0 Z " fill="#49CDB4" transform="translate(557,312)"/>
<path d="M0 0 C0.66 0 1.32 0 2 0 C2 16.83 2 33.66 2 51 C-18.46 51 -38.92 51 -60 51 C-60 69.81 -60 88.62 -60 108 C-60.66 108 -61.32 108 -62 108 C-62.02312883 100.58540058 -62.04091785 93.17080889 -62.05181217 85.75618076 C-62.05703982 82.31359652 -62.06413531 78.87103688 -62.07543945 75.4284668 C-62.08834235 71.47444957 -62.09322918 67.52044244 -62.09765625 63.56640625 C-62.10281754 62.32476212 -62.10797882 61.08311798 -62.11329651 59.80384827 C-62.11337204 58.66274094 -62.11344757 57.52163361 -62.11352539 56.34594727 C-62.115746 55.335569 -62.11796661 54.32519073 -62.12025452 53.28419495 C-62 51 -62 51 -61 50 C-59.12903889 49.87655973 -57.25349072 49.82207606 -55.37866211 49.79467773 C-53.57690773 49.7647599 -53.57690773 49.7647599 -51.73875427 49.73423767 C-50.4314888 49.71752518 -49.12422333 49.70081268 -47.77734375 49.68359375 C-46.43355153 49.66303042 -45.08976588 49.64203412 -43.74598694 49.62062073 C-40.20325013 49.56533581 -36.66045433 49.51595502 -33.11761475 49.46777344 C-29.5047886 49.41760513 -25.89204739 49.36194852 -22.27929688 49.30664062 C-15.18626253 49.19845909 -8.09318305 49.0994866 -1 49 C-0.67 32.83 -0.34 16.66 0 0 Z " fill="#34554D" transform="translate(557,541)"/>
<path d="M0 0 C13.3340625 -0.0309375 13.3340625 -0.0309375 26.9375 -0.0625 C29.74757568 -0.071604 32.55765137 -0.08070801 35.45288086 -0.09008789 C37.66520134 -0.09300683 39.87752235 -0.09555544 42.08984375 -0.09765625 C43.25068481 -0.10277222 44.41152588 -0.10788818 45.60754395 -0.11315918 C46.70377075 -0.11328003 47.79999756 -0.11340088 48.92944336 -0.11352539 C49.88652695 -0.115746 50.84361053 -0.11796661 51.82969666 -0.12025452 C54 0 54 0 55 1 C55.09365006 2.7492872 55.11744438 4.50236254 55.11352539 6.25415039 C55.11344986 7.37523697 55.11337433 8.49632355 55.11329651 9.65138245 C55.10813522 10.8711528 55.10297394 12.09092316 55.09765625 13.34765625 C55.0962413 14.58921982 55.09482635 15.83078339 55.09336853 17.10997009 C55.08870591 20.41605491 55.07971497 23.72207146 55.06866455 27.02813721 C55.05844827 30.39961139 55.05381574 33.77109282 55.04882812 37.14257812 C55.03862279 43.76175739 55.01905106 50.38081653 55 57 C37.84 57 20.68 57 3 57 C3 56.34 3 55.68 3 55 C19.83 55 36.66 55 54 55 C53.88039671 47.61258815 53.75788019 40.22534982 53.62768555 32.83813477 C53.58425994 30.32286504 53.54259071 27.80756437 53.50268555 25.29223633 C53.44516707 21.68561456 53.38142033 18.07914969 53.31640625 14.47265625 C53.29969376 13.34038101 53.28298126 12.20810577 53.26576233 11.04151917 C53.2358445 9.48001381 53.2358445 9.48001381 53.20532227 7.88696289 C53.18200584 6.50463219 53.18200584 6.50463219 53.15821838 5.09437561 C53.22977244 3.01249529 53.22977244 3.01249529 52 2 C50.40486107 1.87727151 48.80445068 1.82218957 47.20483398 1.79467773 C45.65185608 1.76440491 45.65185608 1.76440491 44.06750488 1.73352051 C42.42340637 1.70880676 42.42340637 1.70880676 40.74609375 1.68359375 C39.74453247 1.66494263 38.74297119 1.6462915 37.71105957 1.6270752 C33.95330002 1.55854074 30.1953887 1.49854358 26.4375 1.4375 C13.8459375 1.2209375 13.8459375 1.2209375 1 1 C1 19.15 1 37.3 1 56 C0.67 56 0.34 56 0 56 C0 37.52 0 19.04 0 0 Z " fill="#294E4C" transform="translate(441,365)"/>
<path d="M0 0 C17.82 0 35.64 0 54 0 C54 35.64 54 71.28 54 108 C53.34 108 52.68 108 52 108 C51.67 73.02 51.34 38.04 51 2 C34.17 1.67 17.34 1.34 0 1 C0 0.67 0 0.34 0 0 Z " fill="#324441" transform="translate(559,710)"/>
<path d="M0 0 C19.14 0 38.28 0 58 0 C58 18.48 58 36.96 58 56 C38.86 56 19.72 56 0 56 C0 37.52 0 19.04 0 0 Z M1 1 C1 18.82 1 36.64 1 55 C19.15 55 37.3 55 56 55 C56 52.36 56 49.72 56 47 C56.495 46.01 56.495 46.01 57 45 C57.08934406 43.58026727 57.11758978 42.15642209 57.11352539 40.73388672 C57.11334412 39.3942688 57.11334412 39.3942688 57.11315918 38.02758789 C57.10804321 37.08778076 57.10292725 36.14797363 57.09765625 35.1796875 C57.09614563 33.88526733 57.09614563 33.88526733 57.09460449 32.56469727 C57.08936435 29.3347847 57.07540312 26.10489104 57.0625 22.875 C57.041875 15.65625 57.02125 8.4375 57 1 C38.52 1 20.04 1 1 1 Z " fill="#38796C" transform="translate(91,819)"/>
<path d="M0 0 C18.48 0 36.96 0 56 0 C56 0.99 56 1.98 56 3 C39.83 3 23.66 3 7 3 C6.67 3.66 6.34 4.32 6 5 C6 4.34 6 3.68 6 3 C5.01 3 4.02 3 3 3 C2.20169323 9.94814957 1.80885483 16.82961955 1.68359375 23.8203125 C1.66281265 24.80498505 1.64203156 25.78965759 1.62062073 26.8041687 C1.55588953 29.91105012 1.49660041 33.0180069 1.4375 36.125 C1.39424186 38.24740324 1.35062541 40.3697992 1.30664062 42.4921875 C1.200288 47.66138359 1.09881171 52.83065449 1 58 C0.67 58 0.34 58 0 58 C0 38.86 0 19.72 0 0 Z " fill="#2D5049" transform="translate(612,195)"/>
<path d="M0 0 C0.33 0 0.66 0 1 0 C1 18.15 1 36.3 1 55 C19.15 55 37.3 55 56 55 C56.33 55.99 56.66 56.98 57 58 C55.68 58 54.36 58 53 58 C53 57.34 53 56.68 53 56 C17.69 56 -17.62 56 -54 56 C-54.33 75.47 -54.66 94.94 -55 115 C-55.33 115 -55.66 115 -56 115 C-56 95.2 -56 75.4 -56 55 C-37.52 55 -19.04 55 0 55 C0 36.85 0 18.7 0 0 Z " fill="#41D0B8" transform="translate(668,198)"/>
<path d="M0 0 C0.33 0 0.66 0 1 0 C1 19.14 1 38.28 1 58 C19.81 58 38.62 58 58 58 C58.85070172 61.40280689 59.09950121 63.62194663 59.02172852 67.04394531 C59.00163223 68.04468079 58.98153595 69.04541626 58.96083069 70.07647705 C58.92027809 71.68604279 58.92027809 71.68604279 58.87890625 73.328125 C58.84348976 74.98433868 58.84348976 74.98433868 58.80735779 76.67401123 C58.73080472 80.19947431 58.64674399 83.72471312 58.5625 87.25 C58.50927098 89.64061404 58.45653063 92.03123901 58.40429688 94.421875 C58.27520082 100.28138867 58.13994084 106.14073585 58 112 C57.67 112 57.34 112 57 112 C57 94.84 57 77.68 57 60 C38.52 60 20.04 60 1 60 C1.33 60.99 1.66 61.98 2 63 C1.34 63 0.68 63 0 63 C0 42.21 0 21.42 0 0 Z " fill="#4F4B2F" transform="translate(266,592)"/>
<path d="M0 0 C0.33 0 0.66 0 1 0 C1 16.5 1 33 1 50 C1.66 50 2.32 50 3 50 C3 50.66 3 51.32 3 52 C-26.205 51.505 -26.205 51.505 -56 51 C-56 50.01 -56 49.02 -56 48 C-37.85 48 -19.7 48 -1 48 C-0.67 32.16 -0.34 16.32 0 0 Z " fill="#4BE0C2" transform="translate(724,314)"/>
<path d="M0 0 C1.04590805 0.00222061 2.0918161 0.00444122 3.16941833 0.00672913 C4.35056717 0.00680466 5.531716 0.00688019 6.74865723 0.00695801 C8.03404892 0.01211929 9.31944061 0.01728058 10.64378357 0.02259827 C12.60601112 0.02472069 12.60601112 0.02472069 14.60787964 0.02688599 C18.09150591 0.03071042 21.57509071 0.04054005 25.05870056 0.05158997 C28.6111444 0.06180569 32.16359491 0.06638395 35.71604919 0.07142639 C42.69067564 0.0821624 49.66527449 0.09923792 56.63987732 0.12025452 C56.63987732 0.45025452 56.63987732 0.78025452 56.63987732 1.12025452 C28.42487732 1.61525452 28.42487732 1.61525452 -0.36012268 2.12025452 C-0.69012268 21.59025452 -1.02012268 41.06025452 -1.36012268 61.12025452 C-18.85012268 61.12025452 -36.34012268 61.12025452 -54.36012268 61.12025452 C-54.36012268 60.79025452 -54.36012268 60.46025452 -54.36012268 60.12025452 C-37.53012268 60.12025452 -20.70012268 60.12025452 -3.36012268 60.12025452 C-3.37172424 55.87279358 -3.38332581 51.62533264 -3.39527893 47.24916077 C-3.40170587 43.87118306 -3.40713009 40.49320707 -3.41187286 37.11522675 C-3.41716258 33.54454327 -3.42423607 29.97388337 -3.43556213 26.4032135 C-3.44846444 22.31019355 -3.45335174 18.21719872 -3.45777893 14.12416077 C-3.46294022 12.83876907 -3.4681015 11.55337738 -3.47341919 10.22903442 C-3.47349472 9.04788559 -3.47357025 7.86673676 -3.47364807 6.64979553 C-3.47586868 5.60388748 -3.47808929 4.55797943 -3.4803772 3.4803772 C-3.31811979 0.29590316 -3.18447404 0.16225741 0 0 Z " fill="#506562" transform="translate(843.3601226806641,251.87974548339844)"/>
<path d="M0 0 C0.99 0.33 1.98 0.66 3 1 C3 1.66 3 2.32 3 3 C2.34 3 1.68 3 1 3 C1 19.5 1 36 1 53 C39.28 53 77.56 53 117 53 C117 53.33 117 53.66 117 54 C86.8126688 54.78955131 56.69065763 55.12089109 26.5 54.5625 C25.80655235 54.54968616 25.11310471 54.53687233 24.39864349 54.5236702 C15.93207042 54.36571739 7.46588443 54.19139067 -1 54 C-1.02526648 46.47030348 -1.04283141 38.9406178 -1.05493164 31.41088867 C-1.0599737 28.84708243 -1.06680714 26.28327909 -1.07543945 23.71948242 C-1.08751064 20.04344979 -1.09322942 16.36745502 -1.09765625 12.69140625 C-1.10281754 11.53725723 -1.10797882 10.38310822 -1.11329651 9.19398499 C-1.11337204 8.13296066 -1.11344757 7.07193634 -1.11352539 5.97875977 C-1.115746 5.03944107 -1.11796661 4.10012238 -1.12025452 3.13233948 C-1 1 -1 1 0 0 Z " fill="#515341" transform="translate(150,765)"/>
<path d="M0 0 C1.01037827 0.00222061 2.02075653 0.00444122 3.06175232 0.00672913 C4.77341331 0.00684242 4.77341331 0.00684242 6.51965332 0.00695801 C7.76129745 0.01211929 9.00294159 0.01728058 10.2822113 0.02259827 C12.17785072 0.02472069 12.17785072 0.02472069 14.11178589 0.02688599 C17.47705394 0.0315487 20.84225495 0.04053972 24.20750427 0.05158997 C27.63930175 0.06180606 31.07110614 0.06638403 34.50291443 0.07142639 C41.2405633 0.08248071 47.9781803 0.09923742 54.71580505 0.12025452 C54.71580505 0.45025452 54.71580505 0.78025452 54.71580505 1.12025452 C36.23580505 1.12025452 17.75580505 1.12025452 -1.28419495 1.12025452 C-1.28419495 19.27025452 -1.28419495 37.42025452 -1.28419495 56.12025452 C-18.77419495 56.12025452 -36.26419495 56.12025452 -54.28419495 56.12025452 C-54.28419495 55.79025452 -54.28419495 55.46025452 -54.28419495 55.12025452 C-37.78419495 54.79025452 -21.28419495 54.46025452 -4.28419495 54.12025452 C-4.19331604 48.39875061 -4.19331604 48.39875061 -4.1006012 42.56166077 C-4.03886872 38.88480023 -3.97545747 35.20797224 -3.91188049 31.53114319 C-3.86845428 28.96737031 -3.8267851 26.40356705 -3.78688049 23.83973694 C-3.72936347 20.16361824 -3.66561631 16.48765353 -3.6006012 12.81166077 C-3.5838887 11.65751175 -3.56717621 10.50336273 -3.54995728 9.3142395 C-3.53001205 8.25321518 -3.51006683 7.19219086 -3.48951721 6.09901428 C-3.47397293 5.15969559 -3.45842865 4.22037689 -3.44241333 3.25259399 C-3.22163722 0.27715211 -2.987628 0.1572877 0 0 Z " fill="#4A645F" transform="translate(614.2841949462891,481.87974548339844)"/>
<path d="M0 0 C19.8 0 39.6 0 60 0 C60.495 2.475 60.495 2.475 61 5 C60.505 4.01 60.505 4.01 60 3 C40.53 3 21.06 3 1 3 C0.67 2.01 0.34 1.02 0 0 Z " fill="#49E0C7" transform="translate(380,483)"/>
<path d="M0 0 C20.13 0 40.26 0 61 0 C61 0.66 61 1.32 61 2 C58.38478215 3.30760893 56.46886599 3.11997548 53.54052734 3.11352539 C52.39949554 3.11344986 51.25846375 3.11337433 50.08285522 3.11329651 C48.84637238 3.10813522 47.60988953 3.10297394 46.3359375 3.09765625 C45.07359283 3.0962413 43.81124817 3.09482635 42.51065063 3.09336853 C39.15361701 3.08871078 35.796651 3.07972408 32.43963623 3.06866455 C29.01445094 3.0584377 25.58925866 3.05386818 22.1640625 3.04882812 C15.44268957 3.03778238 8.72134869 3.02103194 2 3 C2 2.34 2 1.68 2 1 C1.34 0.67 0.68 0.34 0 0 Z " fill="#0D3E36" transform="translate(497,314)"/>
<path d="M0 0 C0.66 0 1.32 0 2 0 C2 0.66 2 1.32 2 2 C20.81 2 39.62 2 59 2 C59 2.33 59 2.66 59 3 C39.86 3 20.72 3 1 3 C1 21.48 1 39.96 1 59 C0.34 58.67 -0.32 58.34 -1 58 C-1.02314782 50.73305527 -1.04092756 43.46611846 -1.05181217 36.19914436 C-1.05703565 32.82496974 -1.06412361 29.45082029 -1.07543945 26.07666016 C-1.08752436 22.19953741 -1.09323263 18.3224506 -1.09765625 14.4453125 C-1.10281754 13.23070343 -1.10797882 12.01609436 -1.11329651 10.76467896 C-1.11340981 9.08316238 -1.11340981 9.08316238 -1.11352539 7.36767578 C-1.115746 6.37728302 -1.11796661 5.38689026 -1.12025452 4.3664856 C-1 2 -1 2 0 0 Z " fill="#013024" transform="translate(90,816)"/>
<path d="M0 0 C0.66 0.33 1.32 0.66 2 1 C2 18.49 2 35.98 2 54 C-15.82 54 -33.64 54 -52 54 C-51.67 53.01 -51.34 52.02 -51 51 C-51 51.66 -51 52.32 -51 53 C-34.83 53 -18.66 53 -2 53 C-2 52.34 -2 51.68 -2 51 C-1.34 51 -0.68 51 0 51 C0 34.17 0 17.34 0 0 Z " fill="#826A34" transform="translate(264,711)"/>
<path d="M0 0 C15.84 0 31.68 0 48 0 C48 0.66 48 1.32 48 2 C32.82 2 17.64 2 2 2 C2 21.14 2 40.28 2 60 C1.34 60 0.68 60 0 60 C0 40.2 0 20.4 0 0 Z " fill="#1E5D50" transform="translate(212,422)"/>
<path d="M0 0 C1.65 0 3.3 0 5 0 C5 16.5 5 33 5 50 C4.01 50 3.02 50 2 50 C2 34.16 2 18.32 2 2 C1.34 2 0.68 2 0 2 C0 1.34 0 0.68 0 0 Z " fill="#2AF0C8" transform="translate(780,254)"/>
<path d="M0 0 C0.66 0 1.32 0 2 0 C2 1.32 2 2.64 2 4 C20.15 4 38.3 4 57 4 C57 4.66 57 5.32 57 6 C37.53 6 18.06 6 -2 6 C-1.34 5.67 -0.68 5.34 0 5 C0 3.35 0 1.7 0 0 Z " fill="#614E28" transform="translate(266,704)"/>
<path d="M0 0 C0.66 0 1.32 0 2 0 C2 0.66 2 1.32 2 2 C19.82 2 37.64 2 56 2 C56 2.33 56 2.66 56 3 C38.18 3 20.36 3 2 3 C1.67 3.66 1.34 4.32 1 5 C1 4.34 1 3.68 1 3 C-17.81 3 -36.62 3 -56 3 C-56 2.67 -56 2.34 -56 2 C-37.52 2 -19.04 2 0 2 C0 1.34 0 0.68 0 0 Z " fill="#46CEB8" transform="translate(556,480)"/>
<path d="M0 0 C0.66 0 1.32 0 2 0 C1.67 20.79 1.34 41.58 1 63 C-23.255 62.505 -23.255 62.505 -48 62 C-48 61.67 -48 61.34 -48 61 C-32.82 61 -17.64 61 -2 61 C-2 60.34 -2 59.68 -2 59 C-1.34 59 -0.68 59 0 59 C0 39.53 0 20.06 0 0 Z " fill="#255B52" transform="translate(265,421)"/>
<path d="M0 0 C0.33 0 0.66 0 1 0 C1 17.49 1 34.98 1 53 C-17.15 53 -35.3 53 -54 53 C-54 52.67 -54 52.34 -54 52 C-37.5 52 -21 52 -4 52 C-4 51.34 -4 50.68 -4 50 C-3.01 50 -2.02 50 -1 50 C-0.67 33.5 -0.34 17 0 0 Z " fill="#173A33" transform="translate(723,368)"/>
<path d="M0 0 C2.19902826 3.29854238 2.26409793 4.36420456 2.31884766 8.20581055 C2.33871735 9.26668381 2.35858704 10.32755707 2.37905884 11.420578 C2.39061005 12.56440445 2.40216125 13.7082309 2.4140625 14.88671875 C2.43342865 16.05886429 2.4527948 17.23100983 2.4727478 18.43867493 C2.53260197 22.1882089 2.57895283 25.93777348 2.625 29.6875 C2.66317436 32.22722705 2.70222576 34.76694107 2.7421875 37.30664062 C2.83830835 43.53764497 2.92333885 49.76872751 3 56 C1.515 56.495 1.515 56.495 0 57 C0 38.19 0 19.38 0 0 Z " fill="#142411" transform="translate(325,652)"/>
<path d="M0 0 C0.99 0.33 1.98 0.66 3 1 C3 1.66 3 2.32 3 3 C2.34 3 1.68 3 1 3 C1 19.5 1 36 1 53 C0.34 53 -0.32 53 -1 53 C-1.02526692 45.61271898 -1.0428316 38.22544902 -1.05493164 30.83813477 C-1.05997363 28.32283105 -1.06680703 25.80753028 -1.07543945 23.29223633 C-1.08751094 19.68570225 -1.09322949 16.07920677 -1.09765625 12.47265625 C-1.10281754 11.34038101 -1.10797882 10.20810577 -1.11329651 9.04151917 C-1.11337204 8.00051559 -1.11344757 6.95951202 -1.11352539 5.88696289 C-1.115746 4.96540909 -1.11796661 4.04385529 -1.12025452 3.09437561 C-1 1 -1 1 0 0 Z " fill="#5A502E" transform="translate(150,765)"/>
<path d="M0 0 C2.07861 3.11791501 2.26393344 3.92288379 2.35058594 7.48388672 C2.37691101 8.38847626 2.40323608 9.2930658 2.43035889 10.22506714 C2.4481842 11.20009186 2.46600952 12.17511658 2.484375 13.1796875 C2.5084845 14.18460236 2.53259399 15.18951721 2.55743408 16.22488403 C2.60574376 18.3514794 2.64913255 20.47819137 2.68798828 22.60498047 C2.74963345 25.85567092 2.83273675 29.10532121 2.91796875 32.35546875 C2.96223642 34.42184758 3.00524662 36.48825381 3.046875 38.5546875 C3.07279724 39.52566376 3.09871948 40.49664001 3.12542725 41.49703979 C3.25090642 49.82998091 3.25090642 49.82998091 1 54 C0.67 54 0.34 54 0 54 C0 36.18 0 18.36 0 0 Z " fill="#022E22" transform="translate(558,711)"/>
<path d="M0 0 C0.33 0 0.66 0 1 0 C1 17.16 1 34.32 1 52 C0.01 52 -0.98 52 -2 52 C-1.8827136 44.7550005 -1.75787765 37.51015987 -1.62768555 30.26538086 C-1.58426057 27.79861431 -1.54259128 25.33181622 -1.50268555 22.86499023 C-1.44516555 19.32786534 -1.38141925 15.79090034 -1.31640625 12.25390625 C-1.29969376 11.14350479 -1.28298126 10.03310333 -1.26576233 8.88905334 C-1.24581711 7.86807053 -1.22587189 6.84708771 -1.20532227 5.79516602 C-1.18977798 4.89137711 -1.1742337 3.9875882 -1.15821838 3.05641174 C-1 1 -1 1 0 0 Z " fill="#11240F" transform="translate(148,766)"/>
<path d="M0 0 C2.64 0 5.28 0 8 0 C8.91914189 3.1054896 9.09517918 5.81211618 9.02172852 9.04394531 C8.99158409 10.54504852 8.99158409 10.54504852 8.96083069 12.07647705 C8.92027809 13.68604279 8.92027809 13.68604279 8.87890625 15.328125 C8.85529526 16.43226746 8.83168427 17.53640991 8.80735779 18.67401123 C8.73080472 22.19947431 8.64674399 25.72471312 8.5625 29.25 C8.50927098 31.64061404 8.45653063 34.03123901 8.40429688 36.421875 C8.27520082 42.28138867 8.13994084 48.14073585 8 54 C7.67 54 7.34 54 7 54 C7 36.84 7 19.68 7 2 C4.69 2 2.38 2 0 2 C0 1.34 0 0.68 0 0 Z " fill="#5D502D" transform="translate(316,650)"/>
<path d="M0 0 C0.33 0 0.66 0 1 0 C1 17.82 1 35.64 1 54 C0.34 54 -0.32 54 -1 54 C-2.125 46.25 -2.125 46.25 -1 44 C-0.92538256 41.56299455 -0.90870277 39.15491179 -0.9375 36.71875 C-0.94128662 35.9906311 -0.94507324 35.26251221 -0.94897461 34.5123291 C-0.96527156 31.39844804 -0.9930907 28.28469853 -1.02050781 25.17089844 C-1.08859042 16.71790491 -1.07564282 8.40345952 0 0 Z " fill="#308170" transform="translate(148,820)"/>
<path d="M0 0 C0.33 0.66 0.66 1.32 1 2 C17.17 2 33.34 2 50 2 C50 1.34 50 0.68 50 0 C51.32 0.33 52.64 0.66 54 1 C54 1.66 54 2.32 54 3 C36.18 3 18.36 3 0 3 C0 2.01 0 1.02 0 0 Z " fill="#7C6641" transform="translate(212,762)"/>
<path d="M0 0 C0.99 0 1.98 0 3 0 C3 2.97 3 5.94 3 9 C2.01 9 1.02 9 0 9 C0 6.03 0 3.06 0 0 Z " fill="#20CBA9" transform="translate(894,87)"/>
</svg>
